<svg xmlns="http://www.w3.org/2000/svg" xmlns:xlink="http://www.w3.org/1999/xlink" width="700" zoomAndPan="magnify" viewBox="0 0 525 299.999988" height="400" preserveAspectRatio="xMidYMid meet" version="1.0"><defs><clipPath id="f77eb2282a"><path d="M 130 19.125 L 384.660156 19.125 L 384.660156 271 L 130 271 Z M 130 19.125 " clip-rule="nonzero"/></clipPath></defs><g clip-path="url(#f77eb2282a)"><path fill="#5a4fb6" d="M 146.140625 188.613281 C 146.933594 190.726562 145.867188 193.085938 143.753906 193.878906 C 141.644531 194.675781 139.285156 193.609375 138.492188 191.496094 C 129.261719 167.082031 128.179688 140.558594 134.84375 115.878906 C 146.066406 74.296875 178.445312 41.585938 219.609375 29.808594 L 213.5 27.640625 C 211.371094 26.890625 210.253906 24.554688 211.003906 22.425781 C 211.757812 20.292969 214.09375 19.175781 216.222656 19.929688 L 235.6875 26.835938 C 238.273438 27.746094 239.246094 30.941406 237.609375 33.140625 L 225.046875 49.964844 C 223.695312 51.777344 221.128906 52.152344 219.316406 50.796875 C 217.507812 49.445312 217.132812 46.882812 218.484375 45.070312 L 224.574219 36.914062 C 184.929688 47.234375 153.496094 78.183594 142.746094 117.992188 C 136.523438 141.058594 137.523438 165.828125 146.140625 188.613281 Z M 271.289062 165.1875 C 269.566406 166.636719 266.992188 166.414062 265.542969 164.6875 C 264.09375 162.964844 264.316406 160.394531 266.039062 158.945312 L 279 148.023438 L 266.039062 137.101562 C 264.316406 135.652344 264.09375 133.078125 265.542969 131.355469 C 266.992188 129.632812 269.5625 129.410156 271.289062 130.859375 L 287.910156 144.867188 C 289.871094 146.472656 289.910156 149.496094 287.949219 151.144531 Z M 241.039062 158.945312 L 228.078125 148.023438 L 241.039062 137.101562 C 242.761719 135.652344 242.984375 133.078125 241.535156 131.355469 C 240.085938 129.632812 237.515625 129.410156 235.792969 130.859375 L 219.171875 144.867188 C 217.210938 146.472656 217.167969 149.496094 219.128906 151.144531 L 235.792969 165.183594 C 237.515625 166.632812 240.085938 166.410156 241.535156 164.6875 C 242.988281 162.964844 242.761719 160.394531 241.039062 158.945312 Z M 252.378906 168.164062 C 251.796875 170.34375 249.554688 171.640625 247.371094 171.058594 C 245.1875 170.476562 243.890625 168.234375 244.472656 166.050781 L 254.699219 127.882812 C 255.285156 125.699219 257.527344 124.402344 259.710938 124.988281 C 261.890625 125.570312 263.1875 127.8125 262.605469 129.996094 Z M 183.320312 164.78125 C 185.089844 172.210938 188.035156 179.308594 192.039062 185.816406 L 185.96875 199.484375 L 202.078125 215.589844 L 215.742188 209.523438 C 222.246094 213.527344 229.347656 216.476562 236.78125 218.246094 L 242.148438 232.1875 L 264.929688 232.1875 L 270.296875 218.242188 C 277.730469 216.472656 284.828125 213.527344 291.332031 209.519531 L 305 215.589844 L 321.105469 199.484375 L 315.039062 185.820312 C 319.046875 179.3125 321.992188 172.214844 323.761719 164.78125 L 337.703125 159.414062 L 337.703125 136.632812 L 323.757812 131.265625 C 321.988281 123.832031 319.042969 116.734375 315.035156 110.230469 L 321.105469 96.5625 L 305 80.453125 L 291.335938 86.523438 C 284.828125 82.515625 277.730469 79.570312 270.296875 77.800781 L 264.929688 63.855469 L 242.148438 63.855469 L 236.78125 77.804688 C 229.347656 79.570312 222.25 82.519531 215.746094 86.523438 L 202.078125 80.453125 L 185.96875 96.5625 L 192.039062 110.230469 C 188.035156 116.734375 185.089844 123.832031 183.320312 131.265625 L 169.375 136.632812 L 169.375 159.414062 Z M 203.984375 148.023438 C 203.984375 175.394531 226.167969 197.578125 253.539062 197.578125 C 280.910156 197.578125 303.097656 175.394531 303.097656 148.023438 C 303.097656 120.652344 280.910156 98.464844 253.539062 98.464844 C 226.167969 98.464844 203.984375 120.652344 203.984375 148.023438 Z M 182.601562 223.046875 C 184.820312 223.453125 186.289062 225.582031 185.882812 227.800781 C 185.472656 230.019531 183.347656 231.488281 181.128906 231.082031 L 172.699219 229.523438 C 192.242188 248.953125 217.460938 260.066406 243.484375 262.355469 C 281.4375 265.699219 318.328125 250.082031 342.398438 220.734375 C 343.828125 218.992188 346.402344 218.742188 348.144531 220.175781 C 349.882812 221.605469 350.136719 224.179688 348.703125 225.917969 C 322.992188 257.265625 283.515625 274.105469 242.777344 270.519531 C 214.980469 268.070312 188.035156 256.214844 167.113281 235.492188 L 168.082031 243.6875 C 168.347656 245.929688 166.742188 247.964844 164.5 248.230469 C 162.253906 248.496094 160.21875 246.890625 159.953125 244.648438 L 157.488281 223.792969 C 157.171875 221.089844 159.566406 218.796875 162.289062 219.296875 Z M 377.8125 173.539062 L 372.84375 177.773438 C 376.988281 161.113281 377.636719 143.691406 374.664062 126.703125 C 365.644531 75.171875 324.851562 35.089844 273.40625 26.6875 C 271.179688 26.324219 269.078125 27.835938 268.71875 30.0625 C 268.355469 32.289062 269.867188 34.390625 272.09375 34.75 C 320.128906 42.597656 358.179688 80 366.601562 128.113281 C 369.539062 144.898438 368.699219 162.117188 364.226562 178.453125 L 360.222656 169.140625 C 359.328125 167.0625 356.921875 166.101562 354.84375 166.996094 C 352.769531 167.886719 351.808594 170.296875 352.699219 172.371094 L 360.992188 191.664062 C 362.074219 194.183594 365.324219 194.933594 367.410156 193.152344 L 383.125 179.75 C 384.839844 178.28125 385.039062 175.703125 383.570312 173.988281 C 382.105469 172.273438 379.527344 172.074219 377.8125 173.539062 Z M 377.8125 173.539062 " fill-opacity="1" fill-rule="evenodd"/></g></svg>