<svg xmlns="http://www.w3.org/2000/svg" xmlns:xlink="http://www.w3.org/1999/xlink" width="700" zoomAndPan="magnify" viewBox="0 0 525 299.999988" height="400" preserveAspectRatio="xMidYMid meet" version="1.0"><defs><clipPath id="a54f25ba19"><path d="M 239 134 L 385.449219 134 L 385.449219 274 L 239 274 Z M 239 134 " clip-rule="nonzero"/></clipPath><clipPath id="ed12c84c9e"><path d="M 127.449219 19.125 L 256 19.125 L 256 153 L 127.449219 153 Z M 127.449219 19.125 " clip-rule="nonzero"/></clipPath></defs><g clip-path="url(#a54f25ba19)"><path fill="#5a4fb6" d="M 384.6875 252.386719 L 365.476562 232.296875 C 365.597656 227.976562 364.828125 223.816406 363.167969 219.824219 C 363.746094 218.710938 364.171875 217.539062 364.449219 216.316406 C 364.726562 215.09375 364.847656 213.851562 364.8125 212.597656 C 364.773438 211.34375 364.578125 210.113281 364.230469 208.90625 C 363.878906 207.703125 363.382812 206.558594 362.742188 205.480469 C 357.257812 196.363281 350.566406 188.246094 342.660156 181.125 C 341.988281 180.523438 341.269531 179.984375 340.507812 179.503906 C 338.714844 170.03125 338.148438 158.253906 337.972656 152.003906 C 337.957031 151.417969 337.886719 150.84375 337.761719 150.273438 C 337.636719 149.703125 337.460938 149.148438 337.230469 148.609375 C 337 148.074219 336.726562 147.5625 336.402344 147.078125 C 336.074219 146.59375 335.710938 146.140625 335.300781 145.726562 C 334.890625 145.308594 334.445312 144.933594 333.96875 144.601562 C 333.488281 144.269531 332.980469 143.980469 332.449219 143.746094 C 331.914062 143.507812 331.363281 143.320312 330.796875 143.183594 C 330.230469 143.050781 329.652344 142.96875 329.070312 142.941406 C 328.488281 142.914062 327.90625 142.941406 327.328125 143.023438 C 326.75 143.105469 326.1875 143.242188 325.632812 143.429688 C 325.082031 143.617188 324.550781 143.855469 324.042969 144.144531 C 323.535156 144.429688 323.058594 144.765625 322.613281 145.140625 C 322.164062 145.519531 321.757812 145.933594 321.390625 146.386719 C 321.023438 146.839844 320.703125 147.324219 320.425781 147.835938 C 320.148438 148.351562 319.921875 148.886719 319.742188 149.441406 C 319.566406 150 319.441406 150.566406 319.375 151.144531 C 319.273438 151.964844 319.191406 152.824219 319.125 153.714844 C 315.894531 147.746094 312.921875 142.480469 311.085938 139.261719 C 310.585938 138.375 309.964844 137.585938 309.226562 136.882812 C 308.488281 136.183594 307.667969 135.605469 306.757812 135.148438 C 305.851562 134.695312 304.894531 134.378906 303.890625 134.207031 C 302.890625 134.035156 301.882812 134.011719 300.875 134.136719 L 300.453125 134.191406 C 299.667969 134.300781 298.910156 134.5 298.175781 134.789062 C 297.4375 135.078125 296.746094 135.449219 296.097656 135.902344 C 295.453125 136.355469 294.867188 136.875 294.339844 137.464844 C 293.816406 138.058594 293.367188 138.703125 292.996094 139.398438 C 292.613281 140.109375 292.316406 140.859375 292.105469 141.640625 C 291.894531 142.421875 291.777344 143.214844 291.75 144.023438 C 291.726562 144.832031 291.796875 145.632812 291.957031 146.425781 C 292.117188 147.21875 292.367188 147.980469 292.707031 148.714844 C 294.59375 152.769531 296.617188 157.554688 298.550781 162.351562 C 291.554688 154.34375 284.832031 147.449219 280.273438 142.941406 C 279.746094 142.421875 279.179688 141.949219 278.570312 141.527344 C 277.964844 141.105469 277.324219 140.742188 276.648438 140.433594 C 275.976562 140.125 275.28125 139.878906 274.566406 139.691406 C 273.851562 139.507812 273.121094 139.386719 272.386719 139.328125 C 271.648438 139.269531 270.910156 139.277344 270.175781 139.351562 C 269.4375 139.421875 268.714844 139.558594 268 139.761719 C 267.289062 139.960938 266.597656 140.222656 265.933594 140.542969 C 265.265625 140.867188 264.632812 141.246094 264.035156 141.679688 C 263.882812 141.789062 263.734375 141.898438 263.59375 142.003906 C 262.972656 142.480469 262.398438 143.015625 261.875 143.601562 C 261.351562 144.1875 260.890625 144.816406 260.484375 145.488281 C 260.078125 146.164062 259.742188 146.867188 259.46875 147.605469 C 259.199219 148.34375 258.996094 149.097656 258.867188 149.871094 C 258.738281 150.648438 258.679688 151.425781 258.695312 152.214844 C 258.714844 153 258.800781 153.773438 258.964844 154.542969 C 259.128906 155.3125 259.359375 156.058594 259.664062 156.785156 C 259.964844 157.507812 260.335938 158.199219 260.765625 158.855469 C 262.3125 161.226562 264.140625 163.824219 266.226562 166.628906 C 263.003906 164.128906 260.214844 161.992188 258.164062 160.429688 C 257.664062 160.050781 257.132812 159.714844 256.578125 159.421875 C 256.019531 159.128906 255.445312 158.878906 254.847656 158.675781 C 254.253906 158.476562 253.644531 158.320312 253.023438 158.21875 C 252.402344 158.113281 251.777344 158.058594 251.148438 158.050781 C 250.519531 158.046875 249.894531 158.09375 249.269531 158.1875 C 248.648438 158.285156 248.039062 158.425781 247.441406 158.621094 C 246.839844 158.8125 246.261719 159.050781 245.699219 159.339844 C 245.136719 159.625 244.605469 159.953125 244.09375 160.324219 C 243.890625 160.472656 243.691406 160.625 243.496094 160.777344 C 242.175781 161.800781 241.128906 163.058594 240.359375 164.539062 C 239.585938 166.023438 239.15625 167.597656 239.066406 169.265625 C 238.972656 170.976562 239.238281 172.625 239.863281 174.21875 C 240.488281 175.808594 241.414062 177.199219 242.640625 178.390625 C 262.511719 197.597656 277.875 208.4375 285.398438 213.261719 L 271.667969 214.773438 C 270.847656 214.863281 270.046875 214.796875 269.253906 214.566406 C 268.464844 214.335938 267.75 213.964844 267.109375 213.449219 L 263.664062 210.691406 C 263.613281 210.652344 263.5625 210.613281 263.511719 210.578125 C 262.59375 209.945312 261.621094 209.414062 260.597656 208.984375 C 259.570312 208.550781 258.511719 208.226562 257.417969 208.011719 C 256.324219 207.800781 255.222656 207.699219 254.105469 207.714844 C 252.992188 207.726562 251.894531 207.855469 250.804688 208.097656 C 249.742188 208.328125 248.710938 208.664062 247.71875 209.109375 C 246.722656 209.554688 245.785156 210.101562 244.90625 210.742188 C 244.027344 211.382812 243.222656 212.109375 242.496094 212.917969 C 241.765625 213.730469 241.128906 214.605469 240.585938 215.550781 C 240.234375 216.136719 239.9375 216.75 239.699219 217.390625 C 239.425781 218.207031 239.515625 218.980469 239.972656 219.710938 C 244.84375 227.496094 252.390625 234.15625 257.863281 238.378906 C 259.457031 239.621094 261.203125 240.585938 263.101562 241.28125 C 265 241.972656 266.957031 242.355469 268.972656 242.433594 C 270.203125 242.476562 271.449219 242.496094 272.695312 242.496094 C 279.636719 242.4375 286.554688 241.960938 293.441406 241.074219 C 295.890625 242.46875 298.511719 243.363281 301.304688 243.75 C 302.894531 245.738281 304.902344 247.121094 307.324219 247.90625 L 323.800781 253.285156 C 326.648438 254.21875 329.511719 254.277344 332.394531 253.457031 C 335.238281 254.53125 338.183594 255.070312 341.222656 255.082031 C 342.402344 255.078125 343.570312 254.988281 344.734375 254.8125 L 364.632812 273.167969 C 364.898438 273.414062 365.199219 273.601562 365.539062 273.726562 C 365.878906 273.851562 366.230469 273.90625 366.589844 273.890625 C 366.953125 273.875 367.296875 273.792969 367.625 273.640625 C 367.953125 273.492188 368.238281 273.28125 368.484375 273.015625 C 368.730469 272.75 368.914062 272.449219 369.039062 272.109375 C 369.164062 271.769531 369.21875 271.417969 369.203125 271.058594 C 369.1875 270.695312 369.105469 270.351562 368.953125 270.023438 C 368.800781 269.695312 368.59375 269.410156 368.328125 269.164062 L 350.808594 252.992188 C 352.808594 252.074219 354.660156 250.914062 356.363281 249.519531 L 371.660156 265.597656 C 371.910156 265.875 372.207031 266.089844 372.550781 266.242188 C 372.890625 266.394531 373.25 266.46875 373.625 266.472656 C 374 266.472656 374.359375 266.398438 374.703125 266.246094 C 375.042969 266.097656 375.34375 265.882812 375.597656 265.609375 L 384.675781 256.152344 C 384.921875 255.902344 385.109375 255.613281 385.238281 255.285156 C 385.371094 254.960938 385.4375 254.621094 385.4375 254.273438 C 385.4375 253.921875 385.375 253.582031 385.246094 253.257812 C 385.113281 252.929688 384.929688 252.640625 384.6875 252.386719 Z M 320.769531 168.554688 C 321.300781 169.601562 325.699219 178.476562 325.699219 178.476562 C 322.691406 179.554688 317.429688 181.5625 314.78125 182.894531 C 313.105469 180.480469 308.664062 173.289062 308.261719 172.230469 C 309.070312 171.433594 309.964844 170.746094 310.945312 170.171875 C 311.925781 169.59375 312.960938 169.148438 314.054688 168.824219 C 315.144531 168.503906 316.257812 168.320312 317.394531 168.277344 C 318.53125 168.230469 319.65625 168.324219 320.769531 168.554688 Z M 311.578125 151.265625 C 313.515625 154.773438 315.664062 158.734375 317.796875 162.792969 C 315.691406 162.8125 313.644531 163.167969 311.660156 163.863281 C 309.671875 164.554688 307.851562 165.550781 306.191406 166.84375 C 304.652344 162.882812 302.976562 158.703125 301.300781 154.710938 C 302.761719 153.359375 306.664062 150.355469 311.578125 151.265625 Z M 297.648438 146.414062 C 297.316406 145.710938 297.164062 144.96875 297.1875 144.1875 C 297.210938 143.410156 297.410156 142.679688 297.785156 141.996094 C 298.132812 141.339844 298.609375 140.800781 299.214844 140.378906 C 299.820312 139.953125 300.488281 139.6875 301.222656 139.585938 L 301.550781 139.539062 C 302.023438 139.484375 302.5 139.496094 302.96875 139.578125 C 303.441406 139.660156 303.890625 139.808594 304.320312 140.023438 C 304.746094 140.238281 305.132812 140.511719 305.480469 140.839844 C 305.828125 141.171875 306.117188 141.542969 306.355469 141.960938 C 306.949219 143 307.664062 144.261719 308.46875 145.6875 C 304.960938 146.054688 301.820312 147.328125 299.050781 149.507812 C 298.578125 148.441406 298.109375 147.40625 297.648438 146.414062 Z M 302.105469 175.066406 C 304.839844 178.480469 307.507812 181.996094 309.976562 185.527344 C 306.089844 187.839844 302.425781 190.457031 298.976562 193.378906 C 296.089844 190.800781 292.847656 188.03125 289.460938 185.210938 C 290.394531 182.804688 293.746094 176.058594 302.105469 175.0625 Z M 298.1875 170.292969 C 290.804688 172.34375 286.964844 177.855469 285.203125 181.40625 C 281.230469 176.792969 277.695312 172.519531 274.597656 168.589844 C 275.347656 166.886719 279.335938 158.777344 287.226562 157.9375 C 290.710938 161.675781 294.460938 165.859375 298.1875 170.296875 Z M 265.332031 155.878906 C 265.085938 155.507812 264.875 155.121094 264.703125 154.710938 C 264.527344 154.304688 264.394531 153.882812 264.300781 153.449219 C 264.207031 153.015625 264.152344 152.578125 264.140625 152.136719 C 264.128906 151.691406 264.15625 151.25 264.226562 150.8125 C 264.296875 150.375 264.410156 149.949219 264.5625 149.53125 C 264.710938 149.113281 264.902344 148.714844 265.125 148.332031 C 265.351562 147.953125 265.613281 147.59375 265.90625 147.261719 C 266.199219 146.929688 266.519531 146.625 266.871094 146.355469 C 266.984375 146.265625 267.101562 146.179688 267.21875 146.097656 C 267.558594 145.851562 267.917969 145.636719 268.296875 145.453125 C 268.675781 145.269531 269.066406 145.121094 269.46875 145.007812 C 269.875 144.894531 270.285156 144.816406 270.703125 144.777344 C 271.121094 144.734375 271.542969 144.730469 271.960938 144.761719 C 272.378906 144.792969 272.792969 144.863281 273.199219 144.96875 C 273.605469 145.074219 274 145.214844 274.382812 145.390625 C 274.765625 145.5625 275.128906 145.769531 275.472656 146.011719 C 275.820312 146.25 276.140625 146.515625 276.441406 146.8125 C 278.265625 148.625 280.457031 150.828125 282.871094 153.332031 C 276.695312 155.398438 272.867188 160.480469 270.929688 163.816406 C 268.773438 160.9375 266.910156 158.292969 265.332031 155.878906 Z M 246.429688 174.46875 C 245.769531 173.828125 245.269531 173.078125 244.933594 172.222656 C 244.601562 171.367188 244.457031 170.476562 244.507812 169.558594 C 244.546875 168.675781 244.769531 167.84375 245.179688 167.058594 C 245.585938 166.273438 246.140625 165.613281 246.839844 165.074219 C 246.996094 164.953125 247.15625 164.832031 247.320312 164.710938 C 247.867188 164.308594 248.464844 164.003906 249.113281 163.796875 C 249.757812 163.585938 250.421875 163.484375 251.101562 163.488281 C 251.78125 163.492188 252.441406 163.605469 253.085938 163.820312 C 253.730469 164.039062 254.324219 164.351562 254.867188 164.761719 C 257.011719 166.394531 259.972656 168.664062 263.398438 171.324219 C 261.351562 172.585938 259.59375 174.160156 258.117188 176.054688 C 256.640625 177.949219 255.539062 180.042969 254.816406 182.332031 C 252.128906 179.886719 249.332031 177.265625 246.429688 174.46875 Z M 259.371094 186.398438 C 259.691406 184.558594 261.328125 177.742188 268.15625 175.039062 C 272.035156 178.085938 276.246094 181.433594 280.417969 184.828125 C 278.328125 186.253906 276.546875 187.996094 275.074219 190.054688 C 273.601562 192.113281 272.523438 194.363281 271.847656 196.800781 C 268.09375 193.84375 263.914062 190.390625 259.371094 186.402344 Z M 269.175781 236.984375 C 269.035156 236.976562 268.894531 236.960938 268.753906 236.953125 C 268.339844 233.390625 268.476562 229.847656 269.15625 226.328125 C 269.230469 225.972656 269.230469 225.621094 269.164062 225.265625 C 269.09375 224.910156 268.960938 224.582031 268.761719 224.28125 C 268.5625 223.980469 268.3125 223.726562 268.015625 223.527344 C 267.714844 223.324219 267.390625 223.1875 267.035156 223.113281 C 266.679688 223.042969 266.328125 223.039062 265.972656 223.109375 C 265.617188 223.175781 265.289062 223.308594 264.988281 223.507812 C 264.6875 223.707031 264.433594 223.957031 264.234375 224.257812 C 264.03125 224.554688 263.894531 224.882812 263.820312 225.238281 C 263.160156 228.570312 262.9375 231.933594 263.144531 235.324219 C 262.460938 234.957031 261.808594 234.535156 261.191406 234.0625 C 257.238281 231.011719 250.136719 225.023438 245.417969 218.085938 C 246.148438 216.886719 247.082031 215.882812 248.226562 215.074219 C 249.367188 214.261719 250.625 213.707031 251.992188 213.414062 C 253.433594 213.09375 254.878906 213.074219 256.328125 213.351562 C 257.777344 213.628906 259.113281 214.179688 260.335938 215.007812 L 263.703125 217.703125 C 264.90625 218.671875 266.25 219.371094 267.734375 219.800781 C 269.21875 220.230469 270.726562 220.359375 272.261719 220.1875 L 284.191406 218.875 C 283.769531 221.167969 283.699219 223.472656 283.980469 225.789062 C 284.257812 228.105469 284.871094 230.328125 285.824219 232.457031 C 286.402344 233.792969 287.125 235.042969 287.992188 236.207031 C 281.738281 236.871094 275.464844 237.128906 269.175781 236.984375 Z M 286.800781 207.671875 C 284.144531 205.921875 280.730469 203.554688 276.652344 200.496094 C 276.8125 199.242188 277.117188 198.019531 277.566406 196.835938 C 278.011719 195.652344 278.59375 194.539062 279.304688 193.492188 C 280.015625 192.445312 280.839844 191.5 281.777344 190.648438 C 282.710938 189.796875 283.734375 189.066406 284.84375 188.457031 C 288.417969 191.417969 291.855469 194.339844 294.910156 197.050781 C 292.699219 199.179688 290.613281 201.429688 288.660156 203.796875 C 287.726562 204.9375 287.105469 206.230469 286.800781 207.671875 Z M 325.496094 248.101562 L 309.019531 242.722656 C 308.429688 242.535156 307.875 242.277344 307.355469 241.945312 C 306.835938 241.617188 306.363281 241.226562 305.941406 240.777344 C 305.519531 240.328125 305.160156 239.832031 304.867188 239.289062 C 304.574219 238.75 304.351562 238.179688 304.203125 237.578125 C 302.539062 230.875 299.195312 220.96875 292.75 211.859375 C 292.503906 211.523438 292.316406 211.15625 292.191406 210.761719 C 292.066406 210.363281 292.011719 209.953125 292.019531 209.539062 C 292.03125 209.121094 292.109375 208.714844 292.253906 208.324219 C 292.398438 207.933594 292.605469 207.578125 292.867188 207.253906 C 297.023438 202.214844 301.75 197.789062 307.050781 193.972656 C 312.351562 190.15625 318.050781 187.078125 324.144531 184.734375 C 329.96875 182.621094 334.933594 182.746094 339.015625 185.171875 C 346.511719 191.921875 352.859375 199.621094 358.058594 208.269531 C 358.46875 208.957031 358.785156 209.683594 359.007812 210.449219 C 359.230469 211.21875 359.351562 212 359.371094 212.800781 C 359.394531 213.597656 359.3125 214.386719 359.132812 215.164062 C 358.949219 215.945312 358.671875 216.6875 358.296875 217.394531 C 354.402344 224.660156 346.015625 238.164062 333.632812 246.9375 C 332.445312 247.761719 331.132812 248.277344 329.703125 248.480469 C 328.269531 248.6875 326.867188 248.558594 325.496094 248.101562 Z M 354.765625 243.640625 C 349.265625 249.070312 343.609375 250.011719 339.238281 249.542969 C 348.25 242.472656 355.039062 233.335938 359.496094 226.175781 C 360.671875 231.328125 360.492188 237.996094 354.765625 243.644531 Z M 354.765625 243.640625 " fill-opacity="1" fill-rule="nonzero"/></g><g clip-path="url(#ed12c84c9e)"><path fill="#5a4fb6" d="M 149.460938 83.566406 L 152.039062 99.351562 C 152.0625 99.480469 152.089844 99.605469 152.128906 99.730469 C 159.378906 122.742188 180.292969 140.675781 192.117188 149.3125 C 192.953125 149.925781 193.832031 150.460938 194.761719 150.921875 C 195.6875 151.378906 196.648438 151.757812 197.640625 152.050781 C 198.632812 152.34375 199.644531 152.546875 200.671875 152.664062 C 201.699219 152.78125 202.730469 152.808594 203.765625 152.75 C 204.796875 152.6875 205.820312 152.539062 206.824219 152.300781 C 207.832031 152.0625 208.8125 151.738281 209.765625 151.332031 C 210.714844 150.921875 211.625 150.4375 212.492188 149.871094 C 213.359375 149.304688 214.167969 148.667969 214.925781 147.964844 C 215.6875 148.332031 216.476562 148.636719 217.285156 148.882812 C 218.097656 149.128906 218.921875 149.308594 219.761719 149.421875 C 220.601562 149.539062 221.445312 149.585938 222.289062 149.570312 C 223.136719 149.550781 223.976562 149.46875 224.8125 149.320312 C 225.644531 149.171875 226.460938 148.957031 227.261719 148.679688 C 228.0625 148.402344 228.835938 148.066406 229.582031 147.667969 C 230.328125 147.265625 231.042969 146.8125 231.71875 146.300781 C 232.394531 145.792969 233.023438 145.230469 233.613281 144.621094 C 234.152344 145.074219 234.726562 145.472656 235.339844 145.824219 C 235.953125 146.171875 236.589844 146.460938 237.253906 146.695312 C 237.917969 146.929688 238.597656 147.105469 239.292969 147.214844 C 239.988281 147.328125 240.6875 147.378906 241.394531 147.367188 C 242.097656 147.351562 242.792969 147.277344 243.484375 147.136719 C 244.175781 147 244.847656 146.800781 245.503906 146.542969 C 246.15625 146.285156 246.785156 145.96875 247.382812 145.597656 C 247.980469 145.226562 248.542969 144.804688 249.066406 144.332031 C 249.089844 144.308594 249.117188 144.28125 249.144531 144.257812 C 249.625 143.789062 250.0625 143.277344 250.457031 142.730469 C 250.847656 142.183594 251.1875 141.609375 251.480469 141 C 251.769531 140.394531 252.003906 139.765625 252.183594 139.117188 C 252.363281 138.46875 252.488281 137.808594 252.550781 137.140625 C 252.613281 136.46875 252.617188 135.800781 252.5625 135.128906 C 252.507812 134.457031 252.394531 133.796875 252.222656 133.144531 C 252.050781 132.496094 251.824219 131.863281 251.539062 131.253906 C 251.257812 130.644531 250.921875 130.0625 250.539062 129.511719 L 252.148438 127.75 C 252.71875 127.128906 253.226562 126.457031 253.667969 125.738281 C 254.113281 125.019531 254.480469 124.265625 254.777344 123.472656 C 255.074219 122.683594 255.289062 121.871094 255.429688 121.039062 C 255.566406 120.207031 255.625 119.367188 255.601562 118.523438 C 255.574219 117.679688 255.472656 116.84375 255.285156 116.019531 C 255.097656 115.195312 254.835938 114.398438 254.496094 113.625 C 254.152344 112.855469 253.742188 112.121094 253.257812 111.429688 C 252.777344 110.734375 252.230469 110.09375 251.625 109.507812 L 234.039062 92.355469 C 235.285156 92.394531 236.523438 92.304688 237.753906 92.082031 C 238.984375 91.863281 240.179688 91.519531 241.335938 91.054688 C 242.492188 90.585938 243.59375 90.003906 244.628906 89.308594 C 245.667969 88.613281 246.621094 87.820312 247.496094 86.925781 C 247.78125 86.628906 248.042969 86.308594 248.269531 85.964844 C 248.5 85.621094 248.695312 85.257812 248.859375 84.878906 C 249.023438 84.5 249.148438 84.105469 249.238281 83.703125 C 249.332031 83.300781 249.386719 82.890625 249.402344 82.480469 C 249.417969 82.066406 249.398438 81.65625 249.339844 81.246094 C 249.28125 80.835938 249.183594 80.4375 249.054688 80.042969 C 248.921875 79.652344 248.753906 79.273438 248.554688 78.914062 C 248.351562 78.550781 248.121094 78.210938 247.859375 77.894531 C 239.730469 67.953125 230.640625 58.992188 220.582031 51.007812 C 217.65625 48.699219 214.433594 46.921875 210.914062 45.675781 C 207.398438 44.429688 203.777344 43.785156 200.046875 43.738281 L 196.496094 43.699219 C 194.085938 43.664062 191.777344 43.167969 189.5625 42.214844 C 187.351562 41.257812 185.402344 39.917969 183.722656 38.191406 L 166.320312 20.191406 C 166.070312 19.933594 165.777344 19.734375 165.445312 19.59375 C 165.117188 19.449219 164.769531 19.375 164.410156 19.371094 C 164.050781 19.367188 163.703125 19.429688 163.367188 19.5625 C 163.03125 19.695312 162.734375 19.886719 162.476562 20.136719 C 162.21875 20.386719 162.015625 20.675781 161.875 21.007812 C 161.730469 21.335938 161.652344 21.683594 161.648438 22.042969 C 161.640625 22.402344 161.703125 22.75 161.832031 23.085938 C 161.964844 23.421875 162.152344 23.71875 162.402344 23.980469 L 179.804688 41.976562 C 180.890625 43.089844 182.070312 44.089844 183.347656 44.96875 C 184.628906 45.851562 185.980469 46.601562 187.40625 47.214844 C 188.835938 47.828125 190.308594 48.300781 191.828125 48.625 C 193.347656 48.949219 194.882812 49.121094 196.433594 49.144531 L 199.984375 49.1875 C 203.113281 49.226562 206.148438 49.765625 209.097656 50.808594 C 212.042969 51.851562 214.746094 53.339844 217.199219 55.277344 C 226.945312 63.011719 235.753906 71.695312 243.628906 81.324219 C 243.851562 81.582031 243.960938 81.878906 243.957031 82.21875 C 243.953125 82.558594 243.835938 82.855469 243.613281 83.105469 C 242.75 83.992188 241.777344 84.738281 240.695312 85.335938 C 239.613281 85.9375 238.464844 86.367188 237.257812 86.628906 C 236.046875 86.890625 234.824219 86.96875 233.589844 86.867188 C 232.359375 86.769531 231.164062 86.492188 230.011719 86.039062 C 227.609375 85.101562 225.4375 83.78125 223.5 82.074219 L 217.207031 75.566406 C 216.878906 75.230469 216.488281 74.992188 216.039062 74.855469 C 215.585938 74.71875 215.128906 74.699219 214.667969 74.800781 C 197.976562 78.425781 191.527344 70.539062 191.277344 70.226562 C 191.085938 69.972656 190.863281 69.761719 190.597656 69.589844 C 190.335938 69.417969 190.054688 69.292969 189.75 69.21875 C 189.445312 69.144531 189.136719 69.125 188.824219 69.15625 C 188.511719 69.1875 188.210938 69.273438 187.929688 69.410156 C 187.644531 69.542969 187.394531 69.722656 187.171875 69.945312 C 186.949219 70.167969 186.773438 70.421875 186.640625 70.703125 C 186.503906 70.988281 186.421875 71.285156 186.390625 71.597656 C 186.359375 71.910156 186.382812 72.21875 186.460938 72.523438 C 187.136719 74.800781 188.203125 76.875 189.664062 78.75 C 191.125 80.621094 192.875 82.164062 194.917969 83.375 C 200.011719 86.332031 206.449219 86.8125 214.0625 84.804688 L 220.242188 86.511719 L 247.820312 113.410156 C 253.269531 120.457031 246.75 125.582031 246.75 125.582031 C 239.46875 118.621094 228.226562 108.726562 219.695312 101.324219 C 219.421875 101.089844 219.113281 100.914062 218.773438 100.800781 C 218.429688 100.6875 218.078125 100.640625 217.71875 100.667969 C 217.359375 100.695312 217.015625 100.789062 216.695312 100.949219 C 216.371094 101.109375 216.089844 101.328125 215.855469 101.601562 C 215.617188 101.875 215.441406 102.179688 215.328125 102.523438 C 215.214844 102.867188 215.171875 103.21875 215.195312 103.578125 C 215.222656 103.9375 215.316406 104.28125 215.476562 104.601562 C 215.636719 104.925781 215.855469 105.207031 216.125 105.441406 C 223.746094 112.050781 237.621094 124.214844 244.964844 131.429688 C 244.972656 131.4375 244.980469 131.445312 244.992188 131.453125 C 245 131.460938 245.007812 131.472656 245.015625 131.480469 L 245.25 131.695312 C 245.542969 131.972656 245.808594 132.273438 246.042969 132.601562 C 246.277344 132.929688 246.472656 133.277344 246.636719 133.644531 C 246.800781 134.011719 246.925781 134.390625 247.011719 134.785156 C 247.097656 135.179688 247.144531 135.574219 247.152344 135.980469 C 247.160156 136.382812 247.125 136.78125 247.050781 137.175781 C 246.976562 137.570312 246.863281 137.957031 246.710938 138.328125 C 246.558594 138.703125 246.371094 139.054688 246.148438 139.390625 C 245.925781 139.726562 245.667969 140.035156 245.382812 140.316406 C 245.09375 140.574219 244.78125 140.804688 244.449219 141.003906 C 244.117188 141.203125 243.769531 141.375 243.40625 141.511719 C 243.042969 141.648438 242.667969 141.75 242.289062 141.816406 C 241.90625 141.886719 241.519531 141.917969 241.132812 141.914062 C 240.742188 141.914062 240.359375 141.875 239.976562 141.804688 C 239.597656 141.730469 239.226562 141.621094 238.863281 141.480469 C 238.503906 141.339844 238.15625 141.167969 237.828125 140.964844 C 237.496094 140.757812 237.1875 140.527344 236.902344 140.265625 L 235.363281 138.871094 C 223.964844 127.140625 208.578125 112.417969 203.101562 107.210938 C 206.507812 103.824219 210.148438 100.261719 213.460938 97.132812 C 213.722656 96.886719 213.929688 96.597656 214.078125 96.269531 C 214.222656 95.9375 214.304688 95.59375 214.3125 95.230469 C 214.324219 94.871094 214.265625 94.519531 214.136719 94.183594 C 214.007812 93.847656 213.820312 93.546875 213.570312 93.285156 C 213.324219 93.019531 213.035156 92.816406 212.703125 92.667969 C 212.375 92.519531 212.027344 92.441406 211.667969 92.429688 C 211.308594 92.421875 210.957031 92.480469 210.621094 92.609375 C 210.28125 92.738281 209.984375 92.925781 209.71875 93.171875 C 199.535156 102.789062 186.261719 116.484375 186.125 116.621094 C 185.894531 116.863281 185.710938 117.136719 185.578125 117.445312 C 185.445312 117.757812 185.375 118.078125 185.359375 118.414062 C 185.347656 118.75 185.394531 119.078125 185.503906 119.394531 C 185.613281 119.710938 185.773438 120 185.988281 120.257812 C 193.488281 129.027344 201.613281 137.167969 210.363281 144.683594 C 209.832031 145.097656 209.269531 145.464844 208.679688 145.789062 C 208.089844 146.113281 207.476562 146.386719 206.839844 146.613281 C 206.203125 146.835938 205.554688 147.007812 204.890625 147.125 C 204.230469 147.246094 203.558594 147.308594 202.886719 147.320312 C 202.210938 147.332031 201.542969 147.285156 200.875 147.1875 C 200.207031 147.089844 199.554688 146.9375 198.914062 146.734375 C 198.269531 146.53125 197.648438 146.273438 197.046875 145.96875 C 196.445312 145.664062 195.875 145.3125 195.332031 144.914062 C 184.082031 136.695312 164.222656 119.71875 157.386719 98.277344 L 154.835938 82.6875 C 154.199219 78.730469 152.964844 74.972656 151.140625 71.40625 C 149.3125 67.839844 146.980469 64.644531 144.144531 61.8125 L 132.472656 50.121094 C 132.21875 49.871094 131.921875 49.675781 131.589844 49.542969 C 131.257812 49.40625 130.910156 49.339844 130.554688 49.34375 C 130.195312 49.34375 129.847656 49.414062 129.515625 49.550781 C 129.1875 49.691406 128.894531 49.886719 128.640625 50.140625 C 128.386719 50.390625 128.1875 50.683594 128.050781 51.015625 C 127.914062 51.347656 127.84375 51.691406 127.839844 52.050781 C 127.839844 52.410156 127.902344 52.757812 128.039062 53.089844 C 128.171875 53.421875 128.367188 53.714844 128.617188 53.972656 L 140.292969 65.664062 C 142.726562 68.089844 144.726562 70.832031 146.289062 73.890625 C 147.855469 76.949219 148.914062 80.171875 149.460938 83.566406 Z M 191.777344 118.628906 C 193.421875 116.949219 196.105469 114.214844 199.246094 111.0625 C 204.324219 115.890625 218.492188 129.441406 229.683594 140.851562 C 229.253906 141.296875 228.785156 141.703125 228.285156 142.066406 C 227.785156 142.429688 227.257812 142.75 226.703125 143.023438 C 226.148438 143.296875 225.574219 143.519531 224.976562 143.691406 C 224.382812 143.867188 223.78125 143.988281 223.164062 144.058594 C 222.550781 144.125 221.933594 144.140625 221.316406 144.105469 C 220.695312 144.066406 220.085938 143.976562 219.484375 143.832031 C 218.882812 143.691406 218.296875 143.496094 217.726562 143.25 C 217.160156 143.007812 216.617188 142.714844 216.097656 142.375 C 207.386719 135.082031 199.28125 127.164062 191.777344 118.628906 Z M 191.777344 118.628906 " fill-opacity="1" fill-rule="nonzero"/></g><path fill="#5a4fb6" d="M 157.808594 147.328125 C 157.804688 146.96875 157.734375 146.621094 157.59375 146.292969 C 157.453125 145.960938 157.257812 145.667969 157.003906 145.417969 C 156.746094 145.164062 156.453125 144.96875 156.121094 144.832031 C 155.789062 144.695312 155.445312 144.625 155.085938 144.625 L 155.066406 144.625 C 154.703125 144.628906 154.355469 144.699219 154.023438 144.839844 C 153.691406 144.980469 153.398438 145.179688 153.144531 145.4375 C 152.890625 145.695312 152.695312 145.992188 152.558594 146.324219 C 152.421875 146.660156 152.355469 147.007812 152.359375 147.371094 C 152.378906 150.03125 152.5 152.6875 152.722656 155.335938 C 152.945312 157.988281 153.273438 160.625 153.703125 163.25 C 154.132812 165.875 154.664062 168.480469 155.292969 171.066406 C 155.925781 173.648438 156.65625 176.207031 157.488281 178.734375 C 158.316406 181.261719 159.246094 183.75 160.269531 186.207031 C 161.292969 188.664062 162.410156 191.074219 163.621094 193.441406 C 164.832031 195.8125 166.132812 198.128906 167.527344 200.398438 C 168.917969 202.664062 170.394531 204.875 171.957031 207.027344 C 173.519531 209.179688 175.164062 211.269531 176.890625 213.292969 C 178.617188 215.316406 180.417969 217.273438 182.296875 219.15625 C 184.171875 221.042969 186.121094 222.851562 188.140625 224.582031 C 190.15625 226.316406 192.238281 227.96875 194.386719 229.542969 C 196.53125 231.113281 198.738281 232.597656 201 234 C 203.261719 235.398438 205.574219 236.710938 207.9375 237.929688 C 210.300781 239.152344 212.707031 240.277344 215.160156 241.3125 C 217.613281 242.34375 220.097656 243.28125 222.625 244.121094 C 222.96875 244.242188 223.320312 244.289062 223.6875 244.269531 C 224.050781 244.246094 224.394531 244.15625 224.722656 243.996094 C 225.050781 243.832031 225.335938 243.617188 225.574219 243.339844 C 225.8125 243.066406 225.992188 242.757812 226.105469 242.410156 C 226.222656 242.0625 226.265625 241.707031 226.238281 241.34375 C 226.210938 240.980469 226.113281 240.636719 225.949219 240.3125 C 225.785156 239.988281 225.5625 239.707031 225.285156 239.472656 C 225.003906 239.234375 224.691406 239.0625 224.34375 238.953125 C 221.953125 238.15625 219.597656 237.269531 217.277344 236.289062 C 214.957031 235.3125 212.675781 234.246094 210.4375 233.089844 C 208.199219 231.933594 206.007812 230.691406 203.867188 229.367188 C 201.722656 228.039062 199.636719 226.632812 197.605469 225.144531 C 195.570312 223.65625 193.597656 222.089844 191.6875 220.449219 C 189.777344 218.808594 187.933594 217.09375 186.15625 215.308594 C 184.375 213.523438 182.671875 211.675781 181.035156 209.757812 C 179.402344 207.839844 177.84375 205.859375 176.363281 203.824219 C 174.886719 201.785156 173.484375 199.691406 172.167969 197.542969 C 170.851562 195.398438 169.617188 193.203125 168.472656 190.957031 C 167.324219 188.714844 166.265625 186.429688 165.296875 184.105469 C 164.328125 181.78125 163.449219 179.421875 162.664062 177.027344 C 161.875 174.632812 161.183594 172.214844 160.585938 169.765625 C 159.988281 167.320312 159.484375 164.851562 159.078125 162.367188 C 158.671875 159.878906 158.363281 157.382812 158.152344 154.871094 C 157.9375 152.359375 157.824219 149.847656 157.808594 147.328125 Z M 157.808594 147.328125 " fill-opacity="1" fill-rule="nonzero"/><path fill="#5a4fb6" d="M 246.652344 249.011719 C 246.726562 249.015625 246.800781 249.019531 246.875 249.019531 C 247.226562 249.019531 247.5625 248.953125 247.890625 248.820312 C 248.214844 248.6875 248.503906 248.5 248.757812 248.257812 C 249.007812 248.011719 249.207031 247.730469 249.351562 247.410156 C 249.496094 247.089844 249.574219 246.753906 249.585938 246.402344 C 249.601562 246.054688 249.550781 245.710938 249.433594 245.382812 C 249.3125 245.050781 249.140625 244.753906 248.90625 244.492188 C 248.675781 244.226562 248.402344 244.015625 248.085938 243.859375 C 247.773438 243.703125 247.441406 243.609375 247.09375 243.578125 C 245.976562 243.488281 244.839844 243.378906 243.71875 243.246094 C 243.359375 243.203125 243.003906 243.230469 242.65625 243.328125 C 242.304688 243.425781 241.988281 243.585938 241.703125 243.8125 C 241.417969 244.035156 241.1875 244.304688 241.011719 244.621094 C 240.835938 244.9375 240.726562 245.277344 240.683594 245.636719 C 240.640625 245.996094 240.671875 246.351562 240.769531 246.699219 C 240.871094 247.046875 241.03125 247.363281 241.257812 247.648438 C 241.484375 247.929688 241.757812 248.160156 242.074219 248.335938 C 242.390625 248.511719 242.730469 248.617188 243.089844 248.660156 C 244.273438 248.796875 245.472656 248.914062 246.652344 249.011719 Z M 246.652344 249.011719 " fill-opacity="1" fill-rule="nonzero"/><path fill="#5a4fb6" d="M 354.296875 159.558594 C 354.65625 159.597656 355.007812 159.5625 355.355469 159.460938 C 355.703125 159.355469 356.015625 159.191406 356.292969 158.960938 C 356.574219 158.734375 356.800781 158.460938 356.972656 158.140625 C 357.140625 157.824219 357.246094 157.484375 357.28125 157.125 C 357.632812 153.632812 357.8125 150.132812 357.8125 146.625 C 357.8125 143.734375 357.6875 140.847656 357.445312 137.964844 C 357.203125 135.082031 356.835938 132.21875 356.351562 129.367188 C 355.863281 126.515625 355.257812 123.691406 354.535156 120.890625 C 353.8125 118.09375 352.96875 115.328125 352.011719 112.597656 C 351.054688 109.871094 349.984375 107.1875 348.800781 104.550781 C 347.613281 101.910156 346.320312 99.328125 344.917969 96.796875 C 343.515625 94.269531 342.011719 91.804688 340.398438 89.402344 C 338.789062 87 337.082031 84.671875 335.273438 82.414062 C 333.464844 80.15625 331.566406 77.976562 329.578125 75.882812 C 327.585938 73.785156 325.507812 71.773438 323.347656 69.851562 C 321.1875 67.929688 318.949219 66.101562 316.636719 64.371094 C 314.320312 62.636719 311.9375 61.003906 309.484375 59.472656 C 307.03125 57.941406 304.519531 56.515625 301.945312 55.195312 C 299.371094 53.875 296.75 52.667969 294.074219 51.566406 C 291.398438 50.46875 288.683594 49.484375 285.921875 48.617188 C 283.164062 47.75 280.375 46.996094 277.554688 46.363281 C 277.203125 46.285156 276.847656 46.277344 276.492188 46.339844 C 276.136719 46.402344 275.804688 46.53125 275.5 46.722656 C 275.195312 46.917969 274.941406 47.164062 274.734375 47.457031 C 274.527344 47.753906 274.382812 48.078125 274.304688 48.429688 C 274.226562 48.78125 274.21875 49.136719 274.28125 49.492188 C 274.339844 49.847656 274.46875 50.179688 274.664062 50.484375 C 274.855469 50.789062 275.101562 51.042969 275.394531 51.25 C 275.691406 51.460938 276.015625 51.601562 276.367188 51.679688 C 320.402344 61.507812 352.363281 101.4375 352.363281 146.625 C 352.363281 149.949219 352.195312 153.265625 351.859375 156.574219 C 351.824219 156.933594 351.859375 157.285156 351.960938 157.632812 C 352.066406 157.980469 352.230469 158.292969 352.460938 158.570312 C 352.6875 158.851562 352.960938 159.078125 353.28125 159.25 C 353.597656 159.417969 353.9375 159.523438 354.296875 159.558594 Z M 354.296875 159.558594 " fill-opacity="1" fill-rule="nonzero"/><path fill="#5a4fb6" d="M 243.488281 44.546875 C 243.144531 44.585938 242.816406 44.6875 242.511719 44.851562 C 242.203125 45.015625 241.9375 45.230469 241.714844 45.496094 C 241.492188 45.761719 241.324219 46.058594 241.210938 46.386719 C 241.101562 46.71875 241.058594 47.054688 241.078125 47.402344 C 241.09375 47.75 241.179688 48.082031 241.324219 48.398438 C 241.46875 48.714844 241.667969 48.992188 241.921875 49.230469 C 242.175781 49.46875 242.460938 49.652344 242.785156 49.78125 C 243.105469 49.910156 243.441406 49.976562 243.789062 49.976562 C 243.894531 49.976562 243.996094 49.972656 244.097656 49.960938 C 245.089844 49.847656 246.089844 49.753906 247.09375 49.671875 C 247.449219 49.636719 247.785156 49.539062 248.105469 49.371094 C 248.421875 49.203125 248.695312 48.984375 248.925781 48.710938 C 249.15625 48.433594 249.324219 48.128906 249.433594 47.785156 C 249.542969 47.445312 249.582031 47.09375 249.554688 46.738281 C 249.523438 46.378906 249.429688 46.042969 249.265625 45.722656 C 249.105469 45.402344 248.886719 45.125 248.617188 44.894531 C 248.34375 44.660156 248.039062 44.484375 247.699219 44.371094 C 247.359375 44.257812 247.007812 44.214844 246.652344 44.238281 C 245.59375 44.324219 244.539062 44.425781 243.488281 44.546875 Z M 243.488281 44.546875 " fill-opacity="1" fill-rule="nonzero"/><path fill="#5a4fb6" d="M 327.402344 232.308594 C 326.992188 232.308594 326.597656 232.386719 326.214844 232.542969 C 325.835938 232.699219 325.5 232.925781 325.210938 233.214844 C 324.921875 233.503906 324.695312 233.839844 324.539062 234.21875 C 324.382812 234.597656 324.304688 234.996094 324.304688 235.40625 C 324.304688 235.816406 324.382812 236.210938 324.539062 236.589844 C 324.695312 236.96875 324.921875 237.304688 325.210938 237.597656 C 325.5 237.886719 325.835938 238.109375 326.214844 238.269531 C 326.597656 238.425781 326.992188 238.503906 327.402344 238.503906 C 327.8125 238.503906 328.207031 238.425781 328.585938 238.269531 C 328.96875 238.109375 329.300781 237.886719 329.59375 237.597656 C 329.882812 237.304688 330.105469 236.96875 330.265625 236.589844 C 330.421875 236.210938 330.5 235.816406 330.5 235.40625 C 330.5 234.996094 330.421875 234.597656 330.265625 234.21875 C 330.105469 233.839844 329.882812 233.503906 329.59375 233.214844 C 329.300781 232.925781 328.96875 232.699219 328.585938 232.542969 C 328.207031 232.386719 327.8125 232.308594 327.402344 232.308594 Z M 327.402344 232.308594 " fill-opacity="1" fill-rule="nonzero"/><path fill="#5a4fb6" d="M 337.9375 221.671875 C 337.527344 221.671875 337.132812 221.75 336.753906 221.90625 C 336.371094 222.0625 336.039062 222.289062 335.746094 222.578125 C 335.457031 222.871094 335.234375 223.203125 335.074219 223.582031 C 334.917969 223.964844 334.839844 224.359375 334.839844 224.769531 C 334.839844 225.179688 334.917969 225.574219 335.074219 225.953125 C 335.234375 226.335938 335.457031 226.667969 335.746094 226.960938 C 336.039062 227.25 336.371094 227.472656 336.753906 227.632812 C 337.132812 227.789062 337.527344 227.867188 337.9375 227.867188 C 338.347656 227.867188 338.746094 227.789062 339.125 227.632812 C 339.503906 227.472656 339.839844 227.25 340.128906 226.960938 C 340.417969 226.667969 340.644531 226.335938 340.800781 225.953125 C 340.957031 225.574219 341.035156 225.179688 341.035156 224.769531 C 341.035156 224.359375 340.957031 223.964844 340.800781 223.582031 C 340.644531 223.203125 340.417969 222.871094 340.128906 222.578125 C 339.839844 222.289062 339.503906 222.0625 339.125 221.90625 C 338.742188 221.75 338.347656 221.671875 337.9375 221.671875 Z M 337.9375 221.671875 " fill-opacity="1" fill-rule="nonzero"/><path fill="#5a4fb6" d="M 348.144531 218.164062 C 348.554688 218.164062 348.949219 218.082031 349.328125 217.925781 C 349.710938 217.769531 350.042969 217.546875 350.335938 217.253906 C 350.625 216.964844 350.847656 216.628906 351.007812 216.25 C 351.164062 215.871094 351.242188 215.476562 351.242188 215.0625 C 351.242188 214.652344 351.164062 214.257812 351.007812 213.878906 C 350.847656 213.5 350.625 213.164062 350.335938 212.875 C 350.042969 212.582031 349.710938 212.359375 349.332031 212.203125 C 348.949219 212.042969 348.554688 211.964844 348.144531 211.964844 C 347.734375 211.964844 347.339844 212.042969 346.957031 212.203125 C 346.578125 212.359375 346.246094 212.582031 345.953125 212.875 C 345.664062 213.164062 345.4375 213.5 345.28125 213.878906 C 345.125 214.257812 345.046875 214.652344 345.046875 215.0625 C 345.046875 215.476562 345.125 215.871094 345.28125 216.25 C 345.4375 216.628906 345.664062 216.964844 345.953125 217.253906 C 346.246094 217.546875 346.578125 217.769531 346.957031 217.925781 C 347.339844 218.082031 347.734375 218.164062 348.144531 218.164062 Z M 348.144531 218.164062 " fill-opacity="1" fill-rule="nonzero"/></svg>