<svg xmlns="http://www.w3.org/2000/svg" xmlns:xlink="http://www.w3.org/1999/xlink" width="700" zoomAndPan="magnify" viewBox="0 0 525 299.999988" height="400" preserveAspectRatio="xMidYMid meet" version="1.0"><defs><clipPath id="e3d6d93b43"><path d="M 320 19.125 L 366 19.125 L 366 64 L 320 64 Z M 320 19.125 " clip-rule="nonzero"/></clipPath><clipPath id="af7215895b"><path d="M 181 19.125 L 227 19.125 L 227 64 L 181 64 Z M 181 19.125 " clip-rule="nonzero"/></clipPath><clipPath id="2ca4aa0947"><path d="M 307.429688 69 L 386.234375 69 L 386.234375 113.691406 L 307.429688 113.691406 Z M 307.429688 69 " clip-rule="nonzero"/></clipPath></defs><path fill="#5a4fb6" d="M 354.753906 155.109375 L 347.683594 163.832031 L 336.03125 178.1875 L 335.558594 178.769531 L 326.105469 190.417969 L 309.867188 210.429688 C 308.734375 211.832031 307.019531 212.640625 305.21875 212.640625 L 239.039062 212.640625 C 231.027344 212.640625 223.355469 215.832031 217.6875 221.496094 L 217.054688 222.121094 L 216.597656 222.574219 L 180.019531 185.992188 C 180.023438 185.984375 180.027344 185.976562 180.035156 185.964844 C 180.300781 185.449219 180.574219 184.9375 180.863281 184.433594 C 180.953125 184.273438 181.046875 184.113281 181.140625 183.957031 C 181.355469 183.589844 181.574219 183.226562 181.804688 182.863281 C 181.902344 182.707031 182.003906 182.546875 182.105469 182.386719 C 182.390625 181.941406 182.683594 181.5 182.992188 181.070312 C 183.007812 181.046875 183.019531 181.023438 183.039062 181 C 183.058594 180.972656 183.078125 180.945312 183.097656 180.910156 C 183.4375 180.433594 183.792969 179.960938 184.15625 179.496094 C 184.261719 179.355469 184.375 179.214844 184.484375 179.074219 C 184.75 178.738281 185.027344 178.40625 185.304688 178.074219 C 185.425781 177.929688 185.546875 177.785156 185.671875 177.644531 C 186 177.265625 186.339844 176.886719 186.679688 176.515625 C 186.742188 176.453125 186.804688 176.382812 186.867188 176.316406 C 187.273438 175.882812 187.691406 175.460938 188.113281 175.046875 C 188.234375 174.929688 188.355469 174.820312 188.472656 174.703125 C 188.796875 174.394531 189.121094 174.09375 189.449219 173.796875 C 189.585938 173.667969 189.726562 173.546875 189.863281 173.425781 C 190.238281 173.09375 190.613281 172.777344 190.996094 172.460938 C 191.074219 172.390625 191.15625 172.320312 191.238281 172.257812 C 191.703125 171.878906 192.179688 171.511719 192.660156 171.148438 C 192.777344 171.0625 192.898438 170.976562 193.011719 170.894531 C 193.390625 170.617188 193.769531 170.34375 194.152344 170.082031 C 194.296875 169.980469 194.445312 169.878906 194.59375 169.78125 C 195.003906 169.507812 195.421875 169.234375 195.84375 168.972656 C 195.9375 168.914062 196.03125 168.855469 196.121094 168.796875 C 196.644531 168.476562 197.171875 168.167969 197.703125 167.867188 C 197.804688 167.8125 197.910156 167.753906 198.007812 167.703125 C 198.445312 167.460938 198.886719 167.230469 199.328125 167 C 199.476562 166.925781 199.625 166.851562 199.769531 166.777344 C 200.222656 166.550781 200.679688 166.335938 201.140625 166.125 C 201.238281 166.082031 201.335938 166.035156 201.433594 165.992188 C 202 165.738281 202.574219 165.492188 203.15625 165.261719 C 203.171875 165.257812 203.1875 165.25 203.203125 165.238281 C 203.410156 165.160156 203.617188 165.085938 203.824219 165.007812 C 204.09375 164.902344 204.367188 164.796875 204.644531 164.699219 C 205.023438 164.5625 205.410156 164.429688 205.792969 164.300781 C 205.976562 164.242188 206.160156 164.1875 206.339844 164.128906 C 206.621094 164.039062 206.898438 163.957031 207.183594 163.871094 L 207.765625 163.707031 C 208.039062 163.628906 208.3125 163.554688 208.589844 163.484375 C 208.785156 163.429688 208.984375 163.382812 209.1875 163.332031 C 209.457031 163.269531 209.734375 163.203125 210.011719 163.144531 C 210.207031 163.097656 210.410156 163.054688 210.609375 163.011719 C 210.890625 162.953125 211.171875 162.902344 211.449219 162.84375 C 211.648438 162.8125 211.847656 162.769531 212.042969 162.738281 C 212.332031 162.6875 212.621094 162.640625 212.914062 162.597656 C 213.101562 162.566406 213.292969 162.539062 213.488281 162.511719 C 213.570312 162.5 213.648438 162.484375 213.730469 162.472656 C 213.9375 162.445312 214.144531 162.425781 214.351562 162.398438 C 214.558594 162.375 214.765625 162.347656 214.972656 162.328125 C 215.261719 162.296875 215.554688 162.269531 215.84375 162.246094 C 216.050781 162.230469 216.25 162.210938 216.453125 162.199219 C 216.773438 162.175781 217.089844 162.15625 217.410156 162.140625 C 217.585938 162.132812 217.761719 162.125 217.941406 162.113281 C 218.402344 162.101562 218.863281 162.089844 219.328125 162.089844 C 219.363281 162.089844 219.394531 162.085938 219.429688 162.085938 C 225.863281 162.085938 232.417969 163.550781 238.671875 166.796875 C 239.15625 167.046875 239.652344 167.28125 240.148438 167.5 C 240.171875 167.511719 240.191406 167.519531 240.214844 167.53125 C 240.222656 167.535156 240.226562 167.539062 240.238281 167.542969 C 241.277344 167.992188 242.339844 168.375 243.421875 168.6875 C 246.136719 169.480469 248.976562 169.851562 251.820312 169.851562 L 294.285156 169.851562 C 294.507812 169.851562 294.730469 169.863281 294.953125 169.882812 C 295.011719 169.886719 295.082031 169.894531 295.144531 169.898438 C 295.367188 169.921875 295.589844 169.949219 295.808594 169.992188 C 295.828125 169.992188 295.839844 169.996094 295.855469 170 C 296.070312 170.039062 296.28125 170.089844 296.484375 170.144531 C 296.542969 170.160156 296.605469 170.175781 296.664062 170.195312 C 296.882812 170.257812 297.097656 170.324219 297.300781 170.402344 C 297.316406 170.402344 297.332031 170.410156 297.347656 170.414062 C 297.546875 170.496094 297.734375 170.574219 297.929688 170.664062 C 297.984375 170.6875 298.035156 170.714844 298.089844 170.738281 C 298.292969 170.832031 298.484375 170.941406 298.675781 171.046875 C 298.691406 171.058594 298.707031 171.066406 298.71875 171.074219 C 298.902344 171.183594 299.070312 171.296875 299.242188 171.417969 C 299.289062 171.449219 299.339844 171.484375 299.382812 171.511719 C 299.566406 171.648438 299.738281 171.777344 299.90625 171.921875 C 299.921875 171.933594 299.933594 171.949219 299.949219 171.960938 C 300.105469 172.09375 300.25 172.234375 300.390625 172.375 C 300.433594 172.417969 300.476562 172.460938 300.519531 172.503906 C 300.667969 172.660156 300.8125 172.820312 300.949219 172.984375 C 300.96875 173.007812 300.984375 173.03125 301.003906 173.054688 C 301.085938 173.160156 301.167969 173.265625 301.246094 173.371094 C 301.28125 173.417969 301.308594 173.46875 301.347656 173.523438 C 301.378906 173.574219 301.417969 173.621094 301.449219 173.675781 C 301.570312 173.859375 301.683594 174.046875 301.789062 174.234375 C 301.796875 174.25 301.804688 174.269531 301.8125 174.285156 C 301.914062 174.46875 302.003906 174.660156 302.082031 174.847656 C 302.105469 174.898438 302.125 174.949219 302.144531 175 C 302.230469 175.210938 302.3125 175.421875 302.378906 175.644531 C 302.449219 175.859375 302.503906 176.085938 302.550781 176.3125 C 302.558594 176.367188 302.570312 176.417969 302.578125 176.46875 C 302.625 176.699219 302.65625 176.933594 302.679688 177.171875 C 302.738281 177.714844 302.730469 178.25 302.679688 178.769531 C 302.496094 180.707031 301.628906 182.441406 300.320312 183.738281 C 298.855469 185.1875 296.839844 186.082031 294.609375 186.082031 L 253.296875 186.082031 C 252.050781 186.082031 250.90625 186.527344 250.011719 187.261719 C 249.066406 188.042969 248.40625 189.15625 248.203125 190.417969 C 248.160156 190.6875 248.128906 190.964844 248.128906 191.246094 C 248.128906 191.441406 248.144531 191.628906 248.164062 191.816406 C 248.171875 191.875 248.183594 191.929688 248.191406 191.988281 C 248.210938 192.117188 248.230469 192.242188 248.257812 192.371094 C 248.273438 192.433594 248.292969 192.5 248.308594 192.566406 C 248.335938 192.679688 248.371094 192.792969 248.40625 192.902344 C 248.429688 192.972656 248.453125 193.035156 248.476562 193.097656 C 248.519531 193.207031 248.566406 193.3125 248.613281 193.417969 C 248.644531 193.480469 248.671875 193.542969 248.703125 193.601562 C 248.757812 193.707031 248.820312 193.8125 248.882812 193.914062 C 248.914062 193.964844 248.941406 194.019531 248.976562 194.066406 C 249.054688 194.1875 249.132812 194.300781 249.21875 194.40625 C 249.242188 194.4375 249.265625 194.472656 249.289062 194.5 C 249.40625 194.644531 249.527344 194.777344 249.660156 194.910156 C 249.664062 194.914062 249.671875 194.921875 249.671875 194.921875 C 249.792969 195.042969 249.925781 195.15625 250.058594 195.265625 C 250.140625 195.332031 250.226562 195.394531 250.308594 195.457031 C 250.351562 195.480469 250.382812 195.511719 250.421875 195.535156 C 250.546875 195.617188 250.679688 195.699219 250.8125 195.773438 C 250.855469 195.796875 250.898438 195.816406 250.945312 195.839844 C 251.039062 195.890625 251.132812 195.9375 251.230469 195.980469 C 251.289062 196.003906 251.34375 196.023438 251.402344 196.046875 C 251.492188 196.082031 251.578125 196.117188 251.671875 196.144531 C 251.734375 196.167969 251.792969 196.183594 251.855469 196.207031 C 251.949219 196.234375 252.046875 196.257812 252.140625 196.28125 C 252.203125 196.289062 252.261719 196.304688 252.324219 196.316406 C 252.425781 196.335938 252.535156 196.351562 252.640625 196.363281 C 252.695312 196.371094 252.75 196.378906 252.800781 196.386719 C 252.957031 196.402344 253.117188 196.410156 253.277344 196.410156 L 294.289062 196.410156 C 294.894531 196.410156 295.507812 196.386719 296.113281 196.335938 C 297.410156 196.234375 298.695312 196.011719 299.9375 195.628906 C 300.488281 195.460938 301.027344 195.265625 301.546875 195.050781 C 301.601562 195.035156 301.648438 195.011719 301.703125 194.988281 C 301.910156 194.898438 302.113281 194.8125 302.316406 194.71875 C 302.390625 194.6875 302.460938 194.648438 302.535156 194.613281 C 302.714844 194.527344 302.886719 194.445312 303.0625 194.355469 C 303.144531 194.3125 303.226562 194.265625 303.304688 194.21875 C 303.464844 194.140625 303.625 194.054688 303.78125 193.964844 C 303.871094 193.914062 303.957031 193.859375 304.042969 193.8125 C 304.1875 193.722656 304.335938 193.640625 304.476562 193.546875 C 304.570312 193.488281 304.65625 193.429688 304.746094 193.367188 C 304.882812 193.28125 305.019531 193.191406 305.144531 193.105469 C 305.238281 193.035156 305.328125 192.972656 305.421875 192.902344 C 305.546875 192.816406 305.671875 192.726562 305.796875 192.632812 C 305.886719 192.566406 305.972656 192.492188 306.066406 192.421875 C 306.183594 192.328125 306.300781 192.234375 306.414062 192.140625 C 306.503906 192.0625 306.597656 191.984375 306.683594 191.910156 C 306.792969 191.8125 306.90625 191.71875 307.011719 191.625 C 307.097656 191.542969 307.1875 191.457031 307.277344 191.371094 C 307.378906 191.277344 307.480469 191.183594 307.582031 191.085938 C 307.667969 190.996094 307.75 190.910156 307.835938 190.820312 C 307.933594 190.71875 308.03125 190.621094 308.125 190.519531 C 308.15625 190.484375 308.1875 190.453125 308.21875 190.417969 C 308.273438 190.359375 308.320312 190.300781 308.375 190.246094 C 308.460938 190.144531 308.550781 190.042969 308.640625 189.941406 C 308.722656 189.84375 308.800781 189.75 308.882812 189.648438 C 308.964844 189.546875 309.046875 189.445312 309.132812 189.34375 C 309.207031 189.238281 309.285156 189.136719 309.359375 189.039062 C 309.4375 188.933594 309.519531 188.828125 309.589844 188.722656 C 309.664062 188.617188 309.742188 188.507812 309.816406 188.40625 C 309.882812 188.300781 309.957031 188.195312 310.027344 188.085938 C 310.101562 187.980469 310.167969 187.867188 310.238281 187.757812 C 310.304688 187.652344 310.367188 187.542969 310.433594 187.433594 C 310.5 187.324219 310.566406 187.210938 310.632812 187.09375 C 310.691406 186.988281 310.753906 186.878906 310.816406 186.769531 C 310.878906 186.652344 310.933594 186.535156 310.996094 186.417969 C 311.050781 186.308594 311.109375 186.199219 311.164062 186.085938 C 311.222656 185.964844 311.277344 185.847656 311.335938 185.726562 C 311.386719 185.613281 311.4375 185.503906 311.488281 185.394531 C 311.539062 185.273438 311.589844 185.148438 311.640625 185.023438 C 311.6875 184.910156 311.734375 184.796875 311.777344 184.6875 C 311.828125 184.5625 311.875 184.433594 311.921875 184.308594 C 311.960938 184.199219 312.003906 184.082031 312.042969 183.96875 C 312.085938 183.839844 312.125 183.710938 312.171875 183.585938 C 312.203125 183.46875 312.238281 183.355469 312.273438 183.242188 C 312.3125 183.109375 312.355469 182.976562 312.386719 182.84375 C 312.417969 182.734375 312.449219 182.617188 312.480469 182.503906 C 312.511719 182.371094 312.542969 182.238281 312.574219 182.105469 C 312.601562 181.988281 312.628906 181.871094 312.652344 181.753906 C 312.679688 181.621094 312.707031 181.488281 312.730469 181.355469 C 312.753906 181.238281 312.777344 181.117188 312.796875 181 C 312.820312 180.863281 312.835938 180.734375 312.855469 180.597656 C 312.875 180.480469 312.894531 180.363281 312.902344 180.242188 C 312.921875 180.105469 312.933594 179.972656 312.949219 179.835938 C 312.964844 179.714844 312.972656 179.597656 312.984375 179.476562 C 312.996094 179.339844 313.003906 179.203125 313.011719 179.070312 C 313.019531 178.949219 313.027344 178.828125 313.03125 178.703125 C 313.039062 178.566406 313.039062 178.4375 313.042969 178.300781 C 313.046875 178.175781 313.046875 178.054688 313.046875 177.929688 C 313.046875 177.796875 313.042969 177.660156 313.042969 177.523438 C 313.039062 177.402344 313.035156 177.277344 313.03125 177.152344 C 313.023438 177.019531 313.015625 176.886719 313.007812 176.75 C 312.996094 176.5625 312.984375 176.382812 312.964844 176.195312 C 312.933594 175.835938 312.882812 175.488281 312.828125 175.144531 C 312.738281 174.5625 312.613281 173.988281 312.464844 173.417969 L 326.832031 159.542969 L 336.03125 150.65625 L 343.289062 143.644531 C 344.03125 142.90625 344.882812 142.335938 345.789062 141.941406 C 345.792969 141.9375 345.796875 141.9375 345.804688 141.9375 C 345.953125 141.871094 346.101562 141.8125 346.25 141.757812 C 346.402344 141.703125 346.558594 141.652344 346.714844 141.605469 C 347.472656 141.378906 348.25 141.265625 349.03125 141.265625 C 349.09375 141.265625 349.160156 141.277344 349.226562 141.28125 C 349.675781 141.289062 350.128906 141.328125 350.574219 141.417969 C 350.613281 141.425781 350.648438 141.4375 350.691406 141.445312 C 351.800781 141.679688 352.863281 142.152344 353.816406 142.851562 C 354.144531 143.09375 354.457031 143.347656 354.753906 143.644531 C 356.351562 145.222656 357.128906 147.304688 357.128906 149.367188 C 357.128906 151.453125 356.351562 153.53125 354.753906 155.109375 Z M 212.644531 237.644531 C 212.585938 237.917969 212.511719 238.195312 212.421875 238.464844 C 212.335938 238.734375 212.226562 238.996094 212.101562 239.257812 C 211.894531 239.691406 211.640625 240.105469 211.335938 240.496094 C 211.160156 240.726562 210.96875 240.949219 210.753906 241.164062 L 190.261719 261.664062 L 139.351562 210.757812 L 159.847656 190.257812 C 160.816406 189.289062 162 188.671875 163.242188 188.398438 C 163.308594 188.382812 163.371094 188.363281 163.4375 188.351562 C 163.488281 188.339844 163.542969 188.335938 163.597656 188.328125 C 163.980469 188.261719 164.371094 188.222656 164.761719 188.222656 C 166.089844 188.222656 167.425781 188.601562 168.582031 189.367188 C 168.972656 189.621094 169.335938 189.917969 169.671875 190.257812 L 210.753906 231.339844 C 211.347656 231.933594 211.808594 232.605469 212.144531 233.324219 C 212.289062 233.628906 212.410156 233.949219 212.503906 234.269531 C 212.691406 234.910156 212.789062 235.578125 212.789062 236.242188 C 212.789062 236.710938 212.742188 237.183594 212.644531 237.644531 Z M 362.027344 136.308594 C 358.59375 132.859375 353.957031 130.941406 349.03125 130.941406 C 348.578125 130.941406 348.128906 130.960938 347.683594 130.992188 C 343.566406 131.289062 339.71875 132.921875 336.660156 135.695312 C 336.457031 135.882812 336.257812 136.074219 336.0625 136.269531 L 336.03125 136.296875 L 319.480469 152.285156 L 306.933594 164.40625 C 303.566406 161.382812 299.082031 159.519531 294.257812 159.519531 L 251.625 159.519531 C 249.347656 159.519531 247.15625 159.128906 245.171875 158.390625 C 244.5625 158.167969 243.972656 157.910156 243.410156 157.617188 C 235.914062 153.738281 227.839844 151.761719 219.429688 151.761719 C 215.320312 151.761719 211.238281 152.238281 207.253906 153.164062 C 203.9375 153.933594 200.691406 155.011719 197.566406 156.378906 C 196.59375 156.808594 195.632812 157.265625 194.6875 157.746094 C 190.511719 159.867188 186.589844 162.515625 183.039062 165.648438 C 181.847656 166.695312 180.695312 167.796875 179.585938 168.953125 C 176.503906 172.183594 173.921875 175.695312 171.8125 179.414062 C 169.632812 178.421875 167.238281 177.894531 164.761719 177.894531 C 160.140625 177.894531 155.800781 179.691406 152.546875 182.953125 L 129.507812 205.988281 C 126.882812 208.613281 126.882812 212.878906 129.507812 215.519531 L 185.492188 271.503906 C 188.132812 274.128906 192.398438 274.128906 195.023438 271.503906 L 218.058594 248.46875 C 222.691406 243.835938 224.136719 237.238281 222.414062 231.367188 L 223.914062 229.878906 C 228.328125 225.449219 234.320312 222.972656 240.574219 222.972656 L 305.238281 222.972656 C 310.148438 222.972656 314.800781 220.757812 317.882812 216.9375 L 339.402344 190.417969 L 347.683594 180.21875 L 362.488281 161.972656 C 365.707031 158.546875 367.460938 154.105469 367.460938 149.367188 C 367.460938 144.410156 365.527344 139.78125 362.027344 136.308594 " fill-opacity="1" fill-rule="nonzero"/><path fill="#5a4fb6" d="M 165.496094 200.835938 C 162.238281 200.835938 159.597656 203.480469 159.597656 206.742188 C 159.597656 210 162.238281 212.644531 165.496094 212.644531 C 168.757812 212.644531 171.402344 210 171.402344 206.742188 C 171.402344 203.480469 168.757812 200.835938 165.496094 200.835938 " fill-opacity="1" fill-rule="nonzero"/><g clip-path="url(#e3d6d93b43)"><path fill="#5a4fb6" d="M 365.007812 41.519531 C 365.007812 53.890625 354.980469 63.917969 342.613281 63.917969 C 330.242188 63.917969 320.214844 53.890625 320.214844 41.519531 C 320.214844 29.152344 330.242188 19.125 342.613281 19.125 C 354.980469 19.125 365.007812 29.152344 365.007812 41.519531 " fill-opacity="1" fill-rule="nonzero"/></g><g clip-path="url(#af7215895b)"><path fill="#5a4fb6" d="M 226.789062 41.519531 C 226.789062 53.890625 216.761719 63.917969 204.390625 63.917969 C 192.023438 63.917969 181.996094 53.890625 181.996094 41.519531 C 181.996094 29.152344 192.023438 19.125 204.390625 19.125 C 216.761719 19.125 226.789062 29.152344 226.789062 41.519531 " fill-opacity="1" fill-rule="nonzero"/></g><g clip-path="url(#2ca4aa0947)"><path fill="#5a4fb6" d="M 354.851562 69.054688 L 330.375 69.054688 C 322.691406 69.054688 315.628906 71.847656 310.152344 76.464844 C 306.925781 79.1875 307.195312 84.222656 310.703125 86.570312 C 313.003906 88.109375 315.175781 89.890625 317.179688 91.894531 C 322.03125 96.746094 325.5625 102.554688 327.59375 108.882812 C 328.429688 111.492188 330.855469 113.257812 333.601562 113.257812 L 373.546875 113.257812 C 380.5625 113.257812 386.300781 107.519531 386.300781 100.503906 C 386.300781 83.207031 372.148438 69.054688 354.851562 69.054688 " fill-opacity="1" fill-rule="nonzero"/></g><path fill="#5a4fb6" d="M 236.296875 86.570312 C 239.804688 84.222656 240.074219 79.1875 236.847656 76.464844 C 231.375 71.847656 224.3125 69.054688 216.632812 69.054688 L 192.152344 69.054688 C 174.855469 69.054688 160.703125 83.207031 160.703125 100.503906 C 160.703125 107.519531 166.441406 113.257812 173.457031 113.257812 L 213.402344 113.257812 C 216.144531 113.257812 218.574219 111.492188 219.414062 108.882812 C 221.441406 102.554688 224.96875 96.746094 229.820312 91.894531 C 231.828125 89.890625 233.996094 88.109375 236.296875 86.570312 " fill-opacity="1" fill-rule="nonzero"/><path fill="#5a4fb6" d="M 287.296875 86.324219 L 259.703125 86.324219 C 240.203125 86.324219 224.25 102.277344 224.25 121.777344 C 224.25 129.683594 230.71875 136.15625 238.628906 136.15625 L 308.375 136.15625 C 316.285156 136.15625 322.753906 129.683594 322.753906 121.777344 C 322.753906 102.277344 306.800781 86.324219 287.296875 86.324219 " fill-opacity="1" fill-rule="nonzero"/><path fill="#5a4fb6" d="M 298.75 55.285156 C 298.75 69.226562 287.445312 80.53125 273.5 80.53125 C 259.558594 80.53125 248.253906 69.226562 248.253906 55.285156 C 248.253906 41.335938 259.558594 30.035156 273.5 30.035156 C 287.445312 30.035156 298.75 41.335938 298.75 55.285156 " fill-opacity="1" fill-rule="nonzero"/></svg>