<svg xmlns="http://www.w3.org/2000/svg" xmlns:xlink="http://www.w3.org/1999/xlink" width="700" zoomAndPan="magnify" viewBox="0 0 525 299.999988" height="400" preserveAspectRatio="xMidYMid meet" version="1.0"><defs><clipPath id="1fc91f29ef"><path d="M 131.410156 186 L 144 186 L 144 199 L 131.410156 199 Z M 131.410156 186 " clip-rule="nonzero"/></clipPath><clipPath id="8061434500"><path d="M 131.410156 140 L 144 140 L 144 153 L 131.410156 153 Z M 131.410156 140 " clip-rule="nonzero"/></clipPath><clipPath id="90eb67386e"><path d="M 131.410156 95 L 144 95 L 144 108 L 131.410156 108 Z M 131.410156 95 " clip-rule="nonzero"/></clipPath><clipPath id="31721c9dd4"><path d="M 369 186 L 381.910156 186 L 381.910156 199 L 369 199 Z M 369 186 " clip-rule="nonzero"/></clipPath><clipPath id="00c96180c9"><path d="M 369 140 L 381.910156 140 L 381.910156 153 L 369 153 Z M 369 140 " clip-rule="nonzero"/></clipPath><clipPath id="e857a7b0b7"><path d="M 369 95 L 381.910156 95 L 381.910156 108 L 369 108 Z M 369 95 " clip-rule="nonzero"/></clipPath></defs><path fill="#5a4fb6" d="M 327.527344 71.878906 L 185.65625 71.878906 C 185.382812 71.878906 185.117188 71.90625 184.851562 71.960938 C 184.585938 72.015625 184.328125 72.09375 184.078125 72.199219 C 183.828125 72.300781 183.59375 72.429688 183.367188 72.578125 C 183.140625 72.730469 182.933594 72.898438 182.742188 73.089844 C 182.550781 73.28125 182.382812 73.492188 182.230469 73.714844 C 182.078125 73.941406 181.953125 74.175781 181.847656 74.425781 C 181.746094 74.675781 181.667969 74.933594 181.613281 75.199219 C 181.558594 75.464844 181.53125 75.734375 181.53125 76.003906 L 181.53125 217.886719 C 181.53125 218.15625 181.558594 218.425781 181.613281 218.691406 C 181.667969 218.953125 181.746094 219.210938 181.847656 219.460938 C 181.953125 219.710938 182.078125 219.949219 182.230469 220.171875 C 182.378906 220.398438 182.550781 220.605469 182.742188 220.796875 C 182.933594 220.988281 183.140625 221.160156 183.367188 221.308594 C 183.59375 221.460938 183.828125 221.589844 184.078125 221.691406 C 184.328125 221.796875 184.585938 221.875 184.851562 221.929688 C 185.117188 221.980469 185.382812 222.007812 185.65625 222.007812 L 327.527344 222.007812 C 327.800781 222.007812 328.066406 221.980469 328.332031 221.929688 C 328.597656 221.875 328.855469 221.796875 329.105469 221.691406 C 329.355469 221.589844 329.589844 221.460938 329.816406 221.308594 C 330.039062 221.160156 330.25 220.988281 330.441406 220.796875 C 330.632812 220.605469 330.800781 220.398438 330.953125 220.171875 C 331.101562 219.949219 331.230469 219.710938 331.335938 219.460938 C 331.4375 219.210938 331.515625 218.953125 331.570312 218.691406 C 331.625 218.425781 331.652344 218.15625 331.652344 217.886719 L 331.652344 76.011719 C 331.652344 75.742188 331.625 75.472656 331.570312 75.207031 C 331.519531 74.941406 331.441406 74.683594 331.335938 74.433594 C 331.234375 74.183594 331.105469 73.945312 330.957031 73.71875 C 330.804688 73.496094 330.632812 73.285156 330.441406 73.09375 C 330.253906 72.902344 330.042969 72.730469 329.820312 72.582031 C 329.59375 72.429688 329.355469 72.300781 329.105469 72.199219 C 328.855469 72.09375 328.597656 72.015625 328.332031 71.960938 C 328.066406 71.90625 327.800781 71.878906 327.527344 71.878906 Z M 326.152344 158.40625 C 326.152344 159.042969 326.121094 159.679688 326.058594 160.316406 C 325.992188 160.953125 325.898438 161.582031 325.773438 162.207031 C 325.648438 162.832031 325.496094 163.453125 325.308594 164.0625 C 325.125 164.671875 324.90625 165.273438 324.664062 165.863281 C 324.417969 166.453125 324.144531 167.027344 323.84375 167.589844 C 323.542969 168.152344 323.214844 168.699219 322.863281 169.230469 C 322.507812 169.761719 322.128906 170.273438 321.722656 170.765625 C 321.316406 171.261719 320.890625 171.734375 320.4375 172.183594 C 319.988281 172.636719 319.515625 173.0625 319.023438 173.46875 C 318.527344 173.875 318.015625 174.253906 317.488281 174.609375 C 316.957031 174.964844 316.410156 175.292969 315.847656 175.59375 C 315.285156 175.894531 314.707031 176.167969 314.117188 176.414062 C 313.53125 176.65625 312.929688 176.871094 312.320312 177.058594 C 311.707031 177.242188 311.089844 177.398438 310.464844 177.523438 C 309.839844 177.652344 309.207031 177.746094 308.574219 177.808594 C 307.9375 177.871094 307.300781 177.902344 306.664062 177.90625 L 303.148438 177.90625 C 302.507812 177.90625 301.871094 177.871094 301.234375 177.808594 C 300.601562 177.746094 299.96875 177.652344 299.34375 177.527344 C 298.71875 177.402344 298.101562 177.246094 297.488281 177.058594 C 296.878906 176.875 296.277344 176.660156 295.6875 176.414062 C 295.097656 176.167969 294.523438 175.898438 293.960938 175.597656 C 293.398438 175.292969 292.851562 174.964844 292.320312 174.613281 C 291.789062 174.257812 291.277344 173.875 290.785156 173.472656 C 290.289062 173.066406 289.816406 172.636719 289.367188 172.1875 C 288.914062 171.734375 288.488281 171.261719 288.082031 170.769531 C 287.675781 170.277344 287.296875 169.765625 286.941406 169.234375 C 286.589844 168.703125 286.261719 168.15625 285.960938 167.59375 C 285.65625 167.03125 285.386719 166.453125 285.140625 165.863281 C 284.894531 165.273438 284.679688 164.675781 284.496094 164.0625 C 284.308594 163.453125 284.152344 162.835938 284.027344 162.207031 C 283.902344 161.582031 283.808594 160.953125 283.746094 160.316406 C 283.683594 159.683594 283.652344 159.046875 283.652344 158.40625 L 283.652344 150.261719 C 283.652344 149.824219 283.738281 149.398438 283.90625 148.992188 C 284.074219 148.585938 284.316406 148.230469 284.628906 147.917969 C 284.941406 147.605469 285.300781 147.367188 285.707031 147.199219 C 286.113281 147.03125 286.535156 146.949219 286.976562 146.949219 L 301.574219 146.949219 L 301.574219 114.867188 C 300.71875 114.585938 299.914062 114.203125 299.160156 113.71875 C 298.402344 113.234375 297.71875 112.660156 297.109375 112 C 296.496094 111.34375 295.980469 110.617188 295.550781 109.828125 C 295.125 109.035156 294.804688 108.207031 294.585938 107.332031 L 266.679688 107.332031 C 266.417969 108.121094 266.066406 108.867188 265.628906 109.574219 C 265.195312 110.28125 264.679688 110.929688 264.09375 111.515625 C 263.503906 112.101562 262.855469 112.613281 262.148438 113.050781 C 261.441406 113.484375 260.695312 113.832031 259.90625 114.09375 L 259.90625 193.859375 L 267.859375 193.859375 C 268.289062 193.875 268.703125 193.96875 269.101562 194.140625 C 269.496094 194.316406 269.84375 194.558594 270.148438 194.867188 C 270.449219 195.179688 270.679688 195.535156 270.84375 195.9375 C 271.007812 196.335938 271.085938 196.753906 271.085938 197.1875 C 271.085938 197.621094 271.007812 198.035156 270.84375 198.4375 C 270.679688 198.839844 270.449219 199.195312 270.148438 199.503906 C 269.84375 199.816406 269.496094 200.058594 269.101562 200.234375 C 268.703125 200.40625 268.289062 200.5 267.859375 200.515625 L 245.316406 200.515625 C 244.882812 200.5 244.46875 200.40625 244.074219 200.234375 C 243.675781 200.058594 243.328125 199.816406 243.027344 199.503906 C 242.726562 199.195312 242.492188 198.839844 242.332031 198.4375 C 242.167969 198.035156 242.085938 197.621094 242.085938 197.1875 C 242.085938 196.753906 242.167969 196.335938 242.332031 195.9375 C 242.492188 195.535156 242.726562 195.179688 243.027344 194.867188 C 243.328125 194.558594 243.675781 194.316406 244.074219 194.140625 C 244.46875 193.96875 244.882812 193.875 245.316406 193.859375 L 253.269531 193.859375 L 253.269531 114.09375 C 252.480469 113.832031 251.730469 113.484375 251.023438 113.050781 C 250.316406 112.613281 249.667969 112.101562 249.082031 111.515625 C 248.492188 110.929688 247.980469 110.28125 247.542969 109.574219 C 247.105469 108.867188 246.757812 108.121094 246.496094 107.332031 L 218.597656 107.332031 C 218.578125 107.410156 218.5625 107.480469 218.539062 107.558594 C 218.3125 108.40625 217.980469 109.210938 217.550781 109.980469 C 217.121094 110.746094 216.605469 111.449219 216 112.085938 C 215.394531 112.722656 214.722656 113.277344 213.980469 113.746094 C 213.238281 114.21875 212.449219 114.589844 211.617188 114.863281 L 211.617188 147.832031 L 226.210938 147.832031 C 226.652344 147.832031 227.078125 147.917969 227.484375 148.085938 C 227.894531 148.253906 228.253906 148.496094 228.5625 148.804688 C 228.875 149.117188 229.117188 149.476562 229.285156 149.886719 C 229.453125 150.292969 229.539062 150.71875 229.539062 151.15625 L 229.539062 159.289062 C 229.539062 159.929688 229.503906 160.566406 229.441406 161.199219 C 229.378906 161.835938 229.285156 162.464844 229.160156 163.09375 C 229.035156 163.71875 228.878906 164.335938 228.695312 164.949219 C 228.507812 165.558594 228.292969 166.160156 228.050781 166.75 C 227.804688 167.339844 227.53125 167.914062 227.230469 168.476562 C 226.929688 169.039062 226.601562 169.585938 226.246094 170.117188 C 225.890625 170.648438 225.511719 171.160156 225.109375 171.652344 C 224.703125 172.148438 224.273438 172.621094 223.824219 173.070312 C 223.371094 173.523438 222.898438 173.953125 222.40625 174.355469 C 221.914062 174.761719 221.398438 175.140625 220.871094 175.496094 C 220.339844 175.851562 219.792969 176.179688 219.230469 176.480469 C 218.667969 176.78125 218.089844 177.054688 217.5 177.300781 C 216.910156 177.542969 216.3125 177.757812 215.699219 177.945312 C 215.089844 178.128906 214.472656 178.285156 213.84375 178.410156 C 213.21875 178.535156 212.589844 178.628906 211.953125 178.691406 C 211.316406 178.757812 210.679688 178.789062 210.042969 178.789062 L 206.519531 178.789062 C 205.882812 178.789062 205.246094 178.757812 204.609375 178.691406 C 203.972656 178.628906 203.34375 178.535156 202.71875 178.410156 C 202.089844 178.285156 201.472656 178.128906 200.863281 177.945312 C 200.25 177.757812 199.652344 177.542969 199.0625 177.300781 C 198.472656 177.054688 197.894531 176.78125 197.332031 176.480469 C 196.769531 176.179688 196.222656 175.851562 195.691406 175.496094 C 195.160156 175.140625 194.648438 174.761719 194.15625 174.355469 C 193.660156 173.953125 193.191406 173.523438 192.738281 173.070312 C 192.285156 172.621094 191.859375 172.148438 191.453125 171.65625 C 191.046875 171.160156 190.667969 170.648438 190.3125 170.117188 C 189.957031 169.585938 189.628906 169.039062 189.328125 168.476562 C 189.027344 167.914062 188.753906 167.339844 188.511719 166.75 C 188.265625 166.160156 188.050781 165.558594 187.867188 164.949219 C 187.679688 164.335938 187.523438 163.71875 187.398438 163.09375 C 187.273438 162.464844 187.179688 161.835938 187.117188 161.199219 C 187.054688 160.566406 187.023438 159.929688 187.019531 159.289062 L 187.019531 151.144531 C 187.023438 150.707031 187.109375 150.28125 187.277344 149.875 C 187.449219 149.46875 187.691406 149.109375 188.003906 148.800781 C 188.316406 148.488281 188.675781 148.25 189.082031 148.082031 C 189.492188 147.914062 189.914062 147.832031 190.355469 147.832031 L 204.957031 147.832031 L 204.957031 114.867188 C 204.535156 114.730469 204.125 114.566406 203.722656 114.375 C 203.324219 114.1875 202.9375 113.972656 202.5625 113.734375 C 202.1875 113.496094 201.832031 113.234375 201.492188 112.953125 C 201.148438 112.671875 200.828125 112.367188 200.523438 112.042969 C 200.222656 111.722656 199.9375 111.378906 199.679688 111.023438 C 199.417969 110.664062 199.179688 110.289062 198.96875 109.902344 C 198.753906 109.515625 198.566406 109.113281 198.402344 108.703125 C 198.238281 108.292969 198.101562 107.871094 197.988281 107.441406 C 197.878906 107.015625 197.792969 106.578125 197.738281 106.140625 C 197.679688 105.699219 197.648438 105.261719 197.648438 104.816406 C 197.648438 104.375 197.671875 103.933594 197.726562 103.492188 C 197.78125 103.054688 197.859375 102.617188 197.96875 102.1875 C 198.078125 101.757812 198.210938 101.335938 198.371094 100.925781 C 198.53125 100.511719 198.71875 100.109375 198.929688 99.722656 C 199.140625 99.332031 199.375 98.957031 199.632812 98.597656 C 199.890625 98.234375 200.167969 97.894531 200.46875 97.566406 C 200.769531 97.242188 201.089844 96.9375 201.429688 96.652344 C 201.769531 96.367188 202.125 96.101562 202.496094 95.863281 C 202.867188 95.621094 203.253906 95.40625 203.652344 95.210938 C 204.050781 95.019531 204.460938 94.851562 204.878906 94.710938 C 205.300781 94.570312 205.726562 94.453125 206.160156 94.367188 C 206.59375 94.277344 207.03125 94.21875 207.472656 94.183594 C 207.917969 94.152344 208.359375 94.148438 208.800781 94.167969 C 209.242188 94.191406 209.683594 94.242188 210.117188 94.316406 C 210.554688 94.394531 210.984375 94.5 211.40625 94.628906 C 211.832031 94.761719 212.246094 94.917969 212.648438 95.101562 C 213.050781 95.28125 213.441406 95.488281 213.820312 95.722656 C 214.199219 95.953125 214.558594 96.207031 214.90625 96.484375 C 215.25 96.761719 215.578125 97.058594 215.886719 97.375 C 216.195312 97.695312 216.484375 98.03125 216.75 98.382812 C 217.015625 98.738281 217.261719 99.105469 217.480469 99.488281 C 217.703125 99.875 217.898438 100.269531 218.070312 100.679688 L 246.503906 100.679688 C 246.851562 99.617188 247.359375 98.636719 248.019531 97.734375 C 248.675781 96.832031 249.460938 96.050781 250.367188 95.398438 C 251.273438 94.742188 252.257812 94.242188 253.320312 93.898438 C 254.382812 93.554688 255.472656 93.382812 256.589844 93.382812 C 257.710938 93.382812 258.800781 93.554688 259.863281 93.898438 C 260.925781 94.242188 261.910156 94.742188 262.816406 95.398438 C 263.722656 96.050781 264.503906 96.832031 265.164062 97.734375 C 265.824219 98.636719 266.328125 99.617188 266.679688 100.679688 L 295.105469 100.679688 C 295.277344 100.269531 295.472656 99.875 295.691406 99.492188 C 295.914062 99.105469 296.15625 98.738281 296.421875 98.382812 C 296.691406 98.03125 296.976562 97.695312 297.285156 97.375 C 297.59375 97.058594 297.921875 96.761719 298.269531 96.484375 C 298.613281 96.207031 298.976562 95.953125 299.351562 95.722656 C 299.730469 95.492188 300.121094 95.285156 300.523438 95.101562 C 300.929688 94.917969 301.339844 94.761719 301.765625 94.628906 C 302.1875 94.5 302.617188 94.394531 303.054688 94.316406 C 303.488281 94.242188 303.929688 94.191406 304.371094 94.167969 C 304.8125 94.148438 305.253906 94.152344 305.695312 94.183594 C 306.140625 94.21875 306.578125 94.277344 307.011719 94.367188 C 307.445312 94.453125 307.871094 94.570312 308.292969 94.710938 C 308.710938 94.851562 309.121094 95.019531 309.519531 95.210938 C 309.917969 95.402344 310.304688 95.621094 310.675781 95.859375 C 311.046875 96.101562 311.402344 96.363281 311.742188 96.648438 C 312.082031 96.933594 312.402344 97.238281 312.703125 97.5625 C 313.003906 97.890625 313.28125 98.230469 313.539062 98.59375 C 313.796875 98.953125 314.03125 99.328125 314.242188 99.714844 C 314.453125 100.105469 314.640625 100.507812 314.800781 100.917969 C 314.960938 101.332031 315.097656 101.753906 315.203125 102.183594 C 315.3125 102.613281 315.394531 103.046875 315.449219 103.488281 C 315.5 103.925781 315.527344 104.367188 315.527344 104.808594 C 315.523438 105.253906 315.496094 105.695312 315.4375 106.132812 C 315.382812 106.574219 315.296875 107.007812 315.1875 107.4375 C 315.078125 107.863281 314.941406 108.285156 314.777344 108.695312 C 314.613281 109.109375 314.425781 109.507812 314.210938 109.894531 C 313.996094 110.285156 313.761719 110.65625 313.5 111.015625 C 313.238281 111.375 312.957031 111.714844 312.65625 112.039062 C 312.351562 112.363281 312.03125 112.664062 311.691406 112.949219 C 311.347656 113.230469 310.992188 113.492188 310.617188 113.730469 C 310.246094 113.96875 309.859375 114.183594 309.457031 114.371094 C 309.058594 114.5625 308.648438 114.726562 308.226562 114.863281 L 308.226562 146.949219 L 322.828125 146.949219 C 323.269531 146.949219 323.691406 147.03125 324.101562 147.203125 C 324.507812 147.371094 324.867188 147.609375 325.179688 147.921875 C 325.492188 148.234375 325.730469 148.59375 325.902344 149 C 326.070312 149.410156 326.152344 149.832031 326.152344 150.273438 Z M 326.152344 158.40625 " fill-opacity="1" fill-rule="nonzero"/><path fill="#5a4fb6" d="M 260.5625 104.007812 C 260.5625 104.269531 260.535156 104.527344 260.484375 104.78125 C 260.433594 105.039062 260.359375 105.285156 260.261719 105.527344 C 260.160156 105.769531 260.039062 105.996094 259.894531 106.214844 C 259.746094 106.429688 259.582031 106.632812 259.398438 106.816406 C 259.214844 107 259.015625 107.164062 258.796875 107.308594 C 258.582031 107.453125 258.351562 107.578125 258.109375 107.675781 C 257.871094 107.777344 257.621094 107.851562 257.367188 107.902344 C 257.109375 107.953125 256.851562 107.976562 256.589844 107.976562 C 256.332031 107.976562 256.074219 107.953125 255.816406 107.902344 C 255.5625 107.851562 255.3125 107.777344 255.070312 107.675781 C 254.832031 107.578125 254.601562 107.453125 254.386719 107.308594 C 254.167969 107.164062 253.96875 107 253.785156 106.816406 C 253.601562 106.632812 253.433594 106.429688 253.289062 106.214844 C 253.144531 105.996094 253.023438 105.769531 252.921875 105.527344 C 252.824219 105.285156 252.75 105.039062 252.699219 104.78125 C 252.648438 104.527344 252.621094 104.269531 252.621094 104.007812 C 252.621094 103.746094 252.648438 103.488281 252.699219 103.234375 C 252.75 102.976562 252.824219 102.730469 252.921875 102.488281 C 253.023438 102.246094 253.144531 102.019531 253.289062 101.800781 C 253.433594 101.585938 253.601562 101.386719 253.785156 101.199219 C 253.96875 101.015625 254.167969 100.851562 254.386719 100.707031 C 254.601562 100.5625 254.832031 100.441406 255.070312 100.339844 C 255.3125 100.238281 255.5625 100.164062 255.816406 100.113281 C 256.074219 100.0625 256.332031 100.039062 256.589844 100.039062 C 256.851562 100.039062 257.109375 100.0625 257.367188 100.113281 C 257.621094 100.164062 257.871094 100.238281 258.109375 100.339844 C 258.351562 100.441406 258.582031 100.5625 258.796875 100.707031 C 259.015625 100.851562 259.214844 101.015625 259.398438 101.199219 C 259.582031 101.386719 259.746094 101.585938 259.894531 101.800781 C 260.039062 102.019531 260.160156 102.246094 260.261719 102.488281 C 260.359375 102.730469 260.433594 102.976562 260.484375 103.234375 C 260.535156 103.488281 260.5625 103.746094 260.5625 104.007812 Z M 260.5625 104.007812 " fill-opacity="1" fill-rule="nonzero"/><path fill="#5a4fb6" d="M 211.722656 102.804688 C 211.371094 102.191406 210.886719 101.707031 210.273438 101.351562 C 209.65625 100.996094 208.996094 100.816406 208.285156 100.816406 C 207.804688 100.8125 207.339844 100.898438 206.886719 101.066406 C 206.4375 101.234375 206.03125 101.476562 205.667969 101.796875 C 205.304688 102.113281 205.007812 102.484375 204.78125 102.90625 C 204.554688 103.332031 204.410156 103.78125 204.34375 104.257812 C 204.28125 104.738281 204.304688 105.210938 204.414062 105.679688 C 204.523438 106.148438 204.710938 106.582031 204.976562 106.984375 C 205.246094 107.386719 205.574219 107.726562 205.964844 108.007812 C 206.355469 108.285156 206.785156 108.488281 207.25 108.613281 C 207.628906 108.71875 208.015625 108.761719 208.40625 108.75 C 208.800781 108.738281 209.179688 108.667969 209.554688 108.542969 C 209.925781 108.417969 210.269531 108.242188 210.589844 108.015625 C 210.910156 107.785156 211.191406 107.515625 211.429688 107.207031 C 211.667969 106.894531 211.859375 106.558594 212 106.191406 C 212.136719 105.824219 212.21875 105.445312 212.246094 105.050781 C 212.273438 104.660156 212.242188 104.273438 212.15625 103.890625 C 212.066406 103.507812 211.925781 103.148438 211.730469 102.804688 Z M 211.722656 102.804688 " fill-opacity="1" fill-rule="nonzero"/><path fill="#5a4fb6" d="M 303.867188 108.613281 C 304.117188 108.683594 304.371094 108.726562 304.632812 108.742188 C 304.890625 108.757812 305.152344 108.75 305.410156 108.71875 C 305.667969 108.683594 305.921875 108.625 306.167969 108.542969 C 306.414062 108.457031 306.648438 108.351562 306.875 108.222656 C 307.101562 108.09375 307.3125 107.941406 307.507812 107.769531 C 307.703125 107.597656 307.882812 107.410156 308.039062 107.203125 C 308.199219 106.996094 308.335938 106.777344 308.453125 106.542969 C 308.566406 106.3125 308.660156 106.066406 308.726562 105.816406 C 308.792969 105.566406 308.835938 105.308594 308.855469 105.050781 C 308.871094 104.789062 308.863281 104.53125 308.832031 104.273438 C 308.796875 104.015625 308.738281 103.761719 308.65625 103.515625 C 308.574219 103.269531 308.464844 103.03125 308.335938 102.804688 C 308.207031 102.582031 308.054688 102.371094 307.886719 102.171875 C 307.714844 101.976562 307.523438 101.800781 307.320312 101.640625 C 307.113281 101.480469 306.890625 101.34375 306.660156 101.230469 C 306.425781 101.113281 306.183594 101.019531 305.933594 100.953125 C 305.679688 100.886719 305.425781 100.84375 305.164062 100.824219 C 304.90625 100.808594 304.644531 100.816406 304.386719 100.847656 C 304.128906 100.882812 303.878906 100.941406 303.628906 101.023438 C 303.382812 101.105469 303.148438 101.210938 302.921875 101.34375 C 302.695312 101.472656 302.484375 101.621094 302.289062 101.792969 C 302.09375 101.964844 301.914062 102.152344 301.753906 102.359375 C 301.597656 102.566406 301.457031 102.785156 301.34375 103.019531 C 301.226562 103.253906 301.136719 103.496094 301.066406 103.746094 C 301.019531 103.914062 300.984375 104.089844 300.960938 104.265625 C 300.960938 104.289062 300.960938 104.316406 300.960938 104.347656 C 300.910156 104.820312 300.941406 105.285156 301.054688 105.742188 C 301.171875 106.203125 301.363281 106.625 301.628906 107.015625 C 301.894531 107.40625 302.21875 107.742188 302.605469 108.015625 C 302.988281 108.289062 303.410156 108.488281 303.867188 108.613281 Z M 303.867188 108.613281 " fill-opacity="1" fill-rule="nonzero"/><path fill="#5a4fb6" d="M 193.679688 159.289062 C 193.683594 160.132812 193.765625 160.96875 193.929688 161.792969 C 194.09375 162.621094 194.339844 163.421875 194.660156 164.203125 C 194.984375 164.980469 195.378906 165.71875 195.847656 166.421875 C 196.316406 167.121094 196.847656 167.769531 197.445312 168.367188 C 198.039062 168.960938 198.6875 169.496094 199.390625 169.964844 C 200.089844 170.433594 200.828125 170.828125 201.609375 171.152344 C 202.386719 171.476562 203.1875 171.71875 204.015625 171.886719 C 204.84375 172.050781 205.675781 172.132812 206.519531 172.136719 L 210.027344 172.136719 C 210.871094 172.132812 211.707031 172.050781 212.53125 171.886719 C 213.359375 171.71875 214.164062 171.476562 214.941406 171.152344 C 215.71875 170.832031 216.460938 170.433594 217.160156 169.964844 C 217.863281 169.496094 218.511719 168.964844 219.105469 168.367188 C 219.703125 167.773438 220.234375 167.125 220.703125 166.421875 C 221.171875 165.722656 221.566406 164.980469 221.890625 164.203125 C 222.214844 163.425781 222.457031 162.621094 222.625 161.796875 C 222.789062 160.96875 222.871094 160.132812 222.871094 159.289062 L 222.871094 154.472656 L 193.679688 154.472656 Z M 193.679688 159.289062 " fill-opacity="1" fill-rule="nonzero"/><path fill="#5a4fb6" d="M 290.300781 158.40625 C 290.304688 159.25 290.386719 160.085938 290.550781 160.910156 C 290.714844 161.738281 290.960938 162.542969 291.285156 163.320312 C 291.605469 164.097656 292.003906 164.839844 292.472656 165.539062 C 292.941406 166.242188 293.472656 166.890625 294.066406 167.484375 C 294.664062 168.082031 295.3125 168.613281 296.015625 169.082031 C 296.714844 169.550781 297.453125 169.949219 298.234375 170.273438 C 299.011719 170.59375 299.816406 170.839844 300.640625 171.003906 C 301.46875 171.171875 302.304688 171.253906 303.148438 171.253906 L 306.664062 171.253906 C 307.507812 171.253906 308.34375 171.171875 309.167969 171.003906 C 309.996094 170.839844 310.800781 170.597656 311.578125 170.273438 C 312.355469 169.949219 313.097656 169.554688 313.796875 169.085938 C 314.5 168.617188 315.148438 168.082031 315.742188 167.488281 C 316.339844 166.890625 316.871094 166.242188 317.339844 165.539062 C 317.808594 164.839844 318.207031 164.101562 318.53125 163.320312 C 318.851562 162.542969 319.097656 161.738281 319.261719 160.910156 C 319.425781 160.085938 319.511719 159.25 319.511719 158.40625 L 319.511719 153.589844 L 290.300781 153.589844 Z M 290.300781 158.40625 " fill-opacity="1" fill-rule="nonzero"/><path fill="#5a4fb6" d="M 208.144531 40.046875 L 208.144531 65.230469 L 214.796875 65.230469 L 214.796875 40.046875 C 212.578125 40.640625 210.359375 40.640625 208.144531 40.046875 Z M 208.144531 40.046875 " fill-opacity="1" fill-rule="nonzero"/><path fill="#5a4fb6" d="M 253.265625 40.046875 L 253.265625 65.230469 L 259.917969 65.230469 L 259.917969 40.046875 C 257.699219 40.640625 255.484375 40.640625 253.265625 40.046875 Z M 253.265625 40.046875 " fill-opacity="1" fill-rule="nonzero"/><path fill="#5a4fb6" d="M 298.386719 40.046875 L 298.386719 65.230469 L 305.039062 65.230469 L 305.039062 40.046875 C 302.824219 40.640625 300.605469 40.640625 298.386719 40.046875 Z M 298.386719 40.046875 " fill-opacity="1" fill-rule="nonzero"/><path fill="#5a4fb6" d="M 217.339844 26.417969 C 217.429688 26.804688 217.480469 27.195312 217.496094 27.589844 C 217.511719 27.988281 217.484375 28.382812 217.421875 28.773438 C 217.359375 29.164062 217.257812 29.542969 217.117188 29.914062 C 216.980469 30.285156 216.808594 30.640625 216.597656 30.976562 C 216.390625 31.3125 216.152344 31.628906 215.882812 31.917969 C 215.613281 32.207031 215.316406 32.46875 214.996094 32.699219 C 214.671875 32.929688 214.332031 33.128906 213.972656 33.292969 C 213.613281 33.457031 213.238281 33.585938 212.851562 33.675781 C 212.46875 33.765625 212.078125 33.820312 211.679688 33.832031 C 211.285156 33.847656 210.890625 33.824219 210.5 33.757812 C 210.109375 33.695312 209.730469 33.59375 209.359375 33.457031 C 208.988281 33.316406 208.632812 33.144531 208.296875 32.9375 C 207.960938 32.726562 207.644531 32.488281 207.355469 32.21875 C 207.066406 31.949219 206.804688 31.652344 206.574219 31.332031 C 206.34375 31.011719 206.144531 30.671875 205.980469 30.308594 C 205.816406 29.949219 205.6875 29.578125 205.597656 29.191406 C 205.503906 28.804688 205.453125 28.414062 205.4375 28.019531 C 205.425781 27.625 205.449219 27.230469 205.511719 26.839844 C 205.578125 26.449219 205.679688 26.066406 205.816406 25.695312 C 205.953125 25.324219 206.128906 24.972656 206.335938 24.632812 C 206.542969 24.296875 206.785156 23.984375 207.054688 23.695312 C 207.324219 23.402344 207.621094 23.144531 207.941406 22.910156 C 208.261719 22.679688 208.601562 22.480469 208.964844 22.316406 C 209.324219 22.152344 209.695312 22.027344 210.082031 21.933594 C 210.46875 21.84375 210.859375 21.792969 211.253906 21.777344 C 211.648438 21.761719 212.042969 21.789062 212.433594 21.851562 C 212.824219 21.914062 213.207031 22.015625 213.578125 22.152344 C 213.949219 22.292969 214.300781 22.464844 214.640625 22.675781 C 214.976562 22.882812 215.289062 23.121094 215.578125 23.390625 C 215.871094 23.660156 216.128906 23.957031 216.363281 24.277344 C 216.59375 24.601562 216.792969 24.941406 216.957031 25.300781 C 217.121094 25.660156 217.246094 26.035156 217.339844 26.417969 Z M 217.339844 26.417969 " fill-opacity="1" fill-rule="nonzero"/><path fill="#5a4fb6" d="M 262.625 27.800781 C 262.625 28.199219 262.585938 28.589844 262.507812 28.976562 C 262.429688 29.367188 262.316406 29.742188 262.164062 30.109375 C 262.011719 30.476562 261.828125 30.824219 261.605469 31.152344 C 261.386719 31.480469 261.136719 31.785156 260.855469 32.066406 C 260.578125 32.347656 260.273438 32.597656 259.941406 32.816406 C 259.613281 33.039062 259.265625 33.222656 258.898438 33.375 C 258.535156 33.527344 258.15625 33.640625 257.769531 33.71875 C 257.378906 33.796875 256.988281 33.832031 256.589844 33.832031 C 256.195312 33.832031 255.804688 33.796875 255.414062 33.71875 C 255.027344 33.640625 254.648438 33.527344 254.28125 33.375 C 253.917969 33.222656 253.570312 33.039062 253.242188 32.816406 C 252.910156 32.597656 252.605469 32.347656 252.328125 32.066406 C 252.046875 31.785156 251.796875 31.480469 251.574219 31.152344 C 251.355469 30.824219 251.171875 30.476562 251.019531 30.109375 C 250.867188 29.742188 250.753906 29.367188 250.675781 28.976562 C 250.597656 28.589844 250.558594 28.199219 250.558594 27.800781 C 250.558594 27.40625 250.597656 27.011719 250.675781 26.625 C 250.753906 26.234375 250.867188 25.859375 251.019531 25.492188 C 251.171875 25.128906 251.355469 24.78125 251.574219 24.449219 C 251.796875 24.121094 252.046875 23.816406 252.328125 23.535156 C 252.605469 23.257812 252.910156 23.007812 253.242188 22.785156 C 253.570312 22.566406 253.917969 22.378906 254.28125 22.226562 C 254.648438 22.078125 255.027344 21.960938 255.414062 21.886719 C 255.804688 21.808594 256.195312 21.769531 256.589844 21.769531 C 256.988281 21.769531 257.378906 21.808594 257.769531 21.886719 C 258.15625 21.960938 258.535156 22.078125 258.898438 22.226562 C 259.265625 22.378906 259.613281 22.566406 259.941406 22.785156 C 260.273438 23.007812 260.578125 23.257812 260.855469 23.535156 C 261.136719 23.816406 261.386719 24.121094 261.605469 24.449219 C 261.828125 24.78125 262.011719 25.128906 262.164062 25.492188 C 262.316406 25.859375 262.429688 26.234375 262.507812 26.625 C 262.585938 27.011719 262.625 27.40625 262.625 27.800781 Z M 262.625 27.800781 " fill-opacity="1" fill-rule="nonzero"/><path fill="#5a4fb6" d="M 305.980469 23.535156 C 306.261719 23.8125 306.511719 24.117188 306.730469 24.449219 C 306.949219 24.777344 307.136719 25.125 307.289062 25.492188 C 307.4375 25.855469 307.554688 26.234375 307.628906 26.621094 C 307.707031 27.011719 307.746094 27.402344 307.746094 27.800781 C 307.746094 28.195312 307.707031 28.585938 307.628906 28.976562 C 307.554688 29.363281 307.4375 29.742188 307.289062 30.109375 C 307.136719 30.472656 306.949219 30.820312 306.730469 31.152344 C 306.511719 31.480469 306.261719 31.785156 305.980469 32.066406 C 305.699219 32.34375 305.394531 32.59375 305.066406 32.816406 C 304.734375 33.035156 304.390625 33.222656 304.023438 33.371094 C 303.65625 33.523438 303.28125 33.636719 302.890625 33.714844 C 302.503906 33.792969 302.109375 33.832031 301.714844 33.832031 C 301.316406 33.832031 300.925781 33.792969 300.539062 33.714844 C 300.148438 33.636719 299.773438 33.523438 299.40625 33.371094 C 299.039062 33.222656 298.691406 33.035156 298.363281 32.816406 C 298.035156 32.59375 297.730469 32.34375 297.449219 32.066406 C 297.167969 31.785156 296.917969 31.480469 296.699219 31.152344 C 296.480469 30.820312 296.292969 30.472656 296.140625 30.109375 C 295.988281 29.742188 295.875 29.363281 295.796875 28.976562 C 295.722656 28.585938 295.683594 28.195312 295.683594 27.800781 C 295.683594 27.402344 295.722656 27.011719 295.796875 26.621094 C 295.875 26.234375 295.988281 25.855469 296.140625 25.492188 C 296.292969 25.125 296.480469 24.777344 296.699219 24.449219 C 296.917969 24.117188 297.167969 23.8125 297.449219 23.535156 C 297.730469 23.253906 298.035156 23.003906 298.363281 22.785156 C 298.691406 22.5625 299.039062 22.378906 299.40625 22.226562 C 299.773438 22.074219 300.148438 21.960938 300.539062 21.882812 C 300.925781 21.804688 301.316406 21.765625 301.714844 21.765625 C 302.109375 21.765625 302.503906 21.804688 302.890625 21.882812 C 303.28125 21.960938 303.65625 22.074219 304.023438 22.226562 C 304.390625 22.378906 304.734375 22.5625 305.066406 22.785156 C 305.394531 23.003906 305.699219 23.253906 305.980469 23.535156 Z M 305.980469 23.535156 " fill-opacity="1" fill-rule="nonzero"/><path fill="#5a4fb6" d="M 214.796875 253.867188 L 214.796875 228.683594 L 208.144531 228.683594 L 208.144531 253.867188 C 210.359375 253.273438 212.578125 253.273438 214.796875 253.867188 Z M 214.796875 253.867188 " fill-opacity="1" fill-rule="nonzero"/><path fill="#5a4fb6" d="M 259.917969 253.867188 L 259.917969 228.683594 L 253.265625 228.683594 L 253.265625 253.867188 C 255.484375 253.273438 257.699219 253.273438 259.917969 253.867188 Z M 259.917969 253.867188 " fill-opacity="1" fill-rule="nonzero"/><path fill="#5a4fb6" d="M 305.039062 253.867188 L 305.039062 228.683594 L 298.386719 228.683594 L 298.386719 253.867188 C 300.605469 253.273438 302.824219 253.273438 305.039062 253.867188 Z M 305.039062 253.867188 " fill-opacity="1" fill-rule="nonzero"/><path fill="#5a4fb6" d="M 213.777344 260.523438 C 214.144531 260.675781 214.492188 260.863281 214.820312 261.082031 C 215.148438 261.300781 215.453125 261.550781 215.734375 261.832031 C 216.015625 262.113281 216.265625 262.417969 216.484375 262.746094 C 216.703125 263.074219 216.890625 263.421875 217.042969 263.789062 C 217.191406 264.15625 217.308594 264.53125 217.386719 264.921875 C 217.460938 265.308594 217.5 265.703125 217.5 266.097656 C 217.5 266.492188 217.460938 266.886719 217.386719 267.273438 C 217.308594 267.664062 217.191406 268.039062 217.042969 268.40625 C 216.890625 268.773438 216.703125 269.121094 216.484375 269.449219 C 216.265625 269.777344 216.015625 270.082031 215.734375 270.363281 C 215.453125 270.644531 215.148438 270.894531 214.820312 271.113281 C 214.492188 271.332031 214.144531 271.519531 213.777344 271.671875 C 213.410156 271.820312 213.035156 271.9375 212.644531 272.015625 C 212.257812 272.089844 211.863281 272.128906 211.46875 272.128906 C 211.074219 272.128906 210.679688 272.089844 210.292969 272.015625 C 209.902344 271.9375 209.527344 271.820312 209.160156 271.671875 C 208.792969 271.519531 208.445312 271.332031 208.117188 271.113281 C 207.789062 270.894531 207.484375 270.644531 207.203125 270.363281 C 206.921875 270.082031 206.671875 269.777344 206.453125 269.449219 C 206.234375 269.121094 206.046875 268.773438 205.894531 268.40625 C 205.746094 268.039062 205.628906 267.664062 205.550781 267.273438 C 205.476562 266.886719 205.4375 266.492188 205.4375 266.097656 C 205.4375 265.703125 205.476562 265.308594 205.550781 264.921875 C 205.628906 264.53125 205.746094 264.15625 205.894531 263.789062 C 206.046875 263.421875 206.234375 263.074219 206.453125 262.746094 C 206.671875 262.417969 206.921875 262.113281 207.203125 261.832031 C 207.484375 261.550781 207.789062 261.300781 208.117188 261.082031 C 208.445312 260.863281 208.792969 260.675781 209.160156 260.523438 C 209.527344 260.371094 209.902344 260.257812 210.292969 260.179688 C 210.679688 260.105469 211.074219 260.066406 211.46875 260.066406 C 211.863281 260.066406 212.257812 260.105469 212.644531 260.179688 C 213.035156 260.257812 213.410156 260.371094 213.777344 260.523438 Z M 213.777344 260.523438 " fill-opacity="1" fill-rule="nonzero"/><path fill="#5a4fb6" d="M 262.625 266.097656 C 262.625 266.492188 262.585938 266.886719 262.507812 267.273438 C 262.429688 267.660156 262.316406 268.039062 262.164062 268.40625 C 262.011719 268.769531 261.828125 269.117188 261.605469 269.449219 C 261.386719 269.777344 261.136719 270.082031 260.855469 270.363281 C 260.578125 270.640625 260.273438 270.890625 259.941406 271.113281 C 259.613281 271.332031 259.265625 271.519531 258.898438 271.667969 C 258.535156 271.820312 258.15625 271.933594 257.769531 272.011719 C 257.378906 272.089844 256.988281 272.128906 256.589844 272.128906 C 256.195312 272.128906 255.804688 272.089844 255.414062 272.011719 C 255.027344 271.933594 254.648438 271.820312 254.28125 271.667969 C 253.917969 271.519531 253.570312 271.332031 253.242188 271.113281 C 252.910156 270.890625 252.605469 270.640625 252.328125 270.363281 C 252.046875 270.082031 251.796875 269.777344 251.574219 269.449219 C 251.355469 269.117188 251.171875 268.769531 251.019531 268.40625 C 250.867188 268.039062 250.753906 267.660156 250.675781 267.273438 C 250.597656 266.886719 250.558594 266.492188 250.558594 266.097656 C 250.558594 265.699219 250.597656 265.308594 250.675781 264.917969 C 250.753906 264.53125 250.867188 264.152344 251.019531 263.789062 C 251.171875 263.421875 251.355469 263.074219 251.574219 262.746094 C 251.796875 262.414062 252.046875 262.109375 252.328125 261.832031 C 252.605469 261.550781 252.910156 261.300781 253.242188 261.082031 C 253.570312 260.859375 253.917969 260.675781 254.28125 260.523438 C 254.648438 260.371094 255.027344 260.257812 255.414062 260.179688 C 255.804688 260.101562 256.195312 260.0625 256.589844 260.0625 C 256.988281 260.0625 257.378906 260.101562 257.769531 260.179688 C 258.15625 260.257812 258.535156 260.371094 258.898438 260.523438 C 259.265625 260.675781 259.613281 260.859375 259.941406 261.082031 C 260.273438 261.300781 260.578125 261.550781 260.855469 261.832031 C 261.136719 262.109375 261.386719 262.414062 261.605469 262.746094 C 261.828125 263.074219 262.011719 263.421875 262.164062 263.789062 C 262.316406 264.152344 262.429688 264.53125 262.507812 264.917969 C 262.585938 265.308594 262.625 265.699219 262.625 266.097656 Z M 262.625 266.097656 " fill-opacity="1" fill-rule="nonzero"/><path fill="#5a4fb6" d="M 307.679688 265.121094 C 307.746094 265.511719 307.769531 265.902344 307.753906 266.300781 C 307.742188 266.695312 307.6875 267.085938 307.597656 267.472656 C 307.507812 267.855469 307.378906 268.230469 307.214844 268.589844 C 307.050781 268.949219 306.851562 269.292969 306.621094 269.613281 C 306.386719 269.933594 306.128906 270.230469 305.839844 270.5 C 305.546875 270.769531 305.234375 271.007812 304.898438 271.21875 C 304.5625 271.425781 304.207031 271.597656 303.835938 271.738281 C 303.464844 271.875 303.082031 271.976562 302.691406 272.039062 C 302.300781 272.105469 301.910156 272.128906 301.511719 272.113281 C 301.117188 272.101562 300.726562 272.046875 300.339844 271.957031 C 299.957031 271.867188 299.582031 271.738281 299.222656 271.574219 C 298.863281 271.410156 298.519531 271.210938 298.199219 270.980469 C 297.878906 270.75 297.582031 270.488281 297.3125 270.199219 C 297.042969 269.90625 296.804688 269.59375 296.59375 269.257812 C 296.386719 268.921875 296.214844 268.566406 296.074219 268.195312 C 295.9375 267.824219 295.835938 267.445312 295.773438 267.050781 C 295.707031 266.660156 295.683594 266.269531 295.699219 265.871094 C 295.710938 265.476562 295.765625 265.085938 295.855469 264.699219 C 295.945312 264.316406 296.074219 263.941406 296.238281 263.582031 C 296.402344 263.222656 296.601562 262.878906 296.832031 262.558594 C 297.0625 262.238281 297.324219 261.941406 297.613281 261.671875 C 297.90625 261.402344 298.21875 261.164062 298.554688 260.953125 C 298.890625 260.746094 299.246094 260.574219 299.617188 260.433594 C 299.988281 260.296875 300.367188 260.195312 300.761719 260.132812 C 301.152344 260.066406 301.542969 260.042969 301.941406 260.058594 C 302.335938 260.070312 302.726562 260.125 303.113281 260.214844 C 303.496094 260.304688 303.871094 260.433594 304.230469 260.597656 C 304.589844 260.761719 304.933594 260.960938 305.253906 261.191406 C 305.574219 261.425781 305.871094 261.683594 306.140625 261.972656 C 306.410156 262.265625 306.648438 262.578125 306.859375 262.914062 C 307.066406 263.25 307.238281 263.605469 307.378906 263.976562 C 307.515625 264.347656 307.617188 264.730469 307.679688 265.121094 Z M 307.679688 265.121094 " fill-opacity="1" fill-rule="nonzero"/><path fill="#5a4fb6" d="M 150.128906 192.074219 C 150.128906 193.199219 149.980469 194.308594 149.6875 195.398438 L 174.871094 195.398438 L 174.871094 188.746094 L 149.6875 188.746094 C 149.980469 189.835938 150.128906 190.945312 150.128906 192.074219 Z M 150.128906 192.074219 " fill-opacity="1" fill-rule="nonzero"/><path fill="#5a4fb6" d="M 150.128906 146.949219 C 150.128906 148.078125 149.980469 149.183594 149.6875 150.273438 L 174.871094 150.273438 L 174.871094 143.625 L 149.6875 143.625 C 149.980469 144.710938 150.128906 145.820312 150.128906 146.949219 Z M 150.128906 146.949219 " fill-opacity="1" fill-rule="nonzero"/><path fill="#5a4fb6" d="M 150.128906 101.824219 C 150.128906 102.953125 149.980469 104.0625 149.6875 105.152344 L 174.871094 105.152344 L 174.871094 98.5 L 149.6875 98.5 C 149.980469 99.589844 150.128906 100.699219 150.128906 101.824219 Z M 150.128906 101.824219 " fill-opacity="1" fill-rule="nonzero"/><g clip-path="url(#1fc91f29ef)"><path fill="#5a4fb6" d="M 143.476562 192.074219 C 143.476562 192.46875 143.4375 192.859375 143.359375 193.25 C 143.28125 193.636719 143.167969 194.015625 143.015625 194.382812 C 142.867188 194.746094 142.679688 195.09375 142.460938 195.425781 C 142.238281 195.753906 141.988281 196.058594 141.710938 196.339844 C 141.429688 196.617188 141.125 196.867188 140.796875 197.089844 C 140.464844 197.308594 140.117188 197.492188 139.753906 197.644531 C 139.386719 197.796875 139.007812 197.910156 138.621094 197.988281 C 138.234375 198.066406 137.839844 198.105469 137.445312 198.105469 C 137.046875 198.105469 136.65625 198.066406 136.265625 197.988281 C 135.878906 197.910156 135.5 197.796875 135.136719 197.644531 C 134.769531 197.492188 134.421875 197.308594 134.09375 197.089844 C 133.761719 196.867188 133.457031 196.617188 133.179688 196.339844 C 132.898438 196.058594 132.648438 195.753906 132.429688 195.425781 C 132.207031 195.09375 132.023438 194.746094 131.871094 194.382812 C 131.71875 194.015625 131.605469 193.636719 131.527344 193.25 C 131.449219 192.859375 131.410156 192.46875 131.410156 192.074219 C 131.410156 191.675781 131.449219 191.285156 131.527344 190.894531 C 131.605469 190.507812 131.71875 190.128906 131.871094 189.765625 C 132.023438 189.398438 132.207031 189.050781 132.429688 188.722656 C 132.648438 188.390625 132.898438 188.085938 133.179688 187.808594 C 133.457031 187.527344 133.761719 187.277344 134.09375 187.058594 C 134.421875 186.835938 134.769531 186.652344 135.136719 186.5 C 135.5 186.347656 135.878906 186.234375 136.265625 186.15625 C 136.65625 186.078125 137.046875 186.039062 137.445312 186.039062 C 137.839844 186.039062 138.234375 186.078125 138.621094 186.15625 C 139.007812 186.234375 139.386719 186.347656 139.753906 186.5 C 140.117188 186.652344 140.464844 186.835938 140.796875 187.058594 C 141.125 187.277344 141.429688 187.527344 141.710938 187.808594 C 141.988281 188.085938 142.238281 188.390625 142.460938 188.722656 C 142.679688 189.050781 142.867188 189.398438 143.015625 189.765625 C 143.167969 190.128906 143.28125 190.507812 143.359375 190.894531 C 143.4375 191.285156 143.476562 191.675781 143.476562 192.074219 Z M 143.476562 192.074219 " fill-opacity="1" fill-rule="nonzero"/></g><g clip-path="url(#8061434500)"><path fill="#5a4fb6" d="M 143.476562 146.949219 C 143.476562 147.34375 143.4375 147.738281 143.359375 148.125 C 143.28125 148.515625 143.167969 148.890625 143.015625 149.257812 C 142.867188 149.625 142.679688 149.972656 142.460938 150.300781 C 142.238281 150.628906 141.988281 150.933594 141.710938 151.214844 C 141.429688 151.496094 141.125 151.746094 140.796875 151.964844 C 140.464844 152.183594 140.117188 152.371094 139.753906 152.523438 C 139.386719 152.671875 139.007812 152.789062 138.621094 152.867188 C 138.234375 152.941406 137.839844 152.980469 137.445312 152.980469 C 137.046875 152.980469 136.65625 152.941406 136.265625 152.863281 C 135.878906 152.789062 135.5 152.671875 135.136719 152.523438 C 134.769531 152.371094 134.421875 152.183594 134.09375 151.964844 C 133.761719 151.746094 133.457031 151.496094 133.179688 151.214844 C 132.898438 150.933594 132.648438 150.628906 132.429688 150.300781 C 132.207031 149.972656 132.023438 149.625 131.871094 149.257812 C 131.71875 148.890625 131.605469 148.515625 131.527344 148.125 C 131.449219 147.738281 131.410156 147.34375 131.410156 146.949219 C 131.410156 146.554688 131.449219 146.160156 131.527344 145.773438 C 131.605469 145.382812 131.71875 145.007812 131.871094 144.640625 C 132.023438 144.273438 132.207031 143.925781 132.429688 143.597656 C 132.648438 143.269531 132.898438 142.964844 133.179688 142.683594 C 133.457031 142.402344 133.761719 142.152344 134.09375 141.933594 C 134.421875 141.714844 134.769531 141.527344 135.136719 141.375 C 135.5 141.222656 135.878906 141.109375 136.265625 141.03125 C 136.65625 140.957031 137.046875 140.917969 137.445312 140.917969 C 137.839844 140.917969 138.234375 140.957031 138.621094 141.03125 C 139.007812 141.109375 139.386719 141.222656 139.753906 141.375 C 140.117188 141.527344 140.464844 141.714844 140.796875 141.933594 C 141.125 142.152344 141.429688 142.402344 141.710938 142.683594 C 141.988281 142.964844 142.238281 143.269531 142.460938 143.597656 C 142.679688 143.925781 142.867188 144.273438 143.015625 144.640625 C 143.167969 145.007812 143.28125 145.382812 143.359375 145.773438 C 143.4375 146.160156 143.476562 146.554688 143.476562 146.949219 Z M 143.476562 146.949219 " fill-opacity="1" fill-rule="nonzero"/></g><g clip-path="url(#90eb67386e)"><path fill="#5a4fb6" d="M 143.476562 101.824219 C 143.476562 102.222656 143.4375 102.613281 143.359375 103.003906 C 143.28125 103.390625 143.167969 103.769531 143.015625 104.132812 C 142.867188 104.5 142.679688 104.847656 142.460938 105.175781 C 142.238281 105.507812 141.988281 105.8125 141.710938 106.089844 C 141.429688 106.371094 141.125 106.621094 140.796875 106.839844 C 140.464844 107.0625 140.117188 107.246094 139.753906 107.398438 C 139.386719 107.550781 139.007812 107.664062 138.621094 107.742188 C 138.234375 107.820312 137.839844 107.859375 137.445312 107.859375 C 137.046875 107.859375 136.65625 107.820312 136.265625 107.742188 C 135.878906 107.664062 135.5 107.550781 135.136719 107.398438 C 134.769531 107.246094 134.421875 107.0625 134.09375 106.839844 C 133.761719 106.621094 133.457031 106.371094 133.179688 106.089844 C 132.898438 105.8125 132.648438 105.507812 132.429688 105.175781 C 132.207031 104.847656 132.023438 104.5 131.871094 104.132812 C 131.71875 103.769531 131.605469 103.390625 131.527344 103.003906 C 131.449219 102.613281 131.410156 102.222656 131.410156 101.824219 C 131.410156 101.429688 131.449219 101.035156 131.527344 100.648438 C 131.605469 100.261719 131.71875 99.882812 131.871094 99.515625 C 132.023438 99.152344 132.207031 98.804688 132.429688 98.472656 C 132.648438 98.144531 132.898438 97.839844 133.179688 97.558594 C 133.457031 97.28125 133.761719 97.03125 134.09375 96.808594 C 134.421875 96.589844 134.769531 96.402344 135.136719 96.253906 C 135.5 96.101562 135.878906 95.988281 136.265625 95.910156 C 136.65625 95.832031 137.046875 95.792969 137.445312 95.792969 C 137.839844 95.792969 138.234375 95.832031 138.621094 95.910156 C 139.007812 95.988281 139.386719 96.101562 139.753906 96.253906 C 140.117188 96.402344 140.464844 96.589844 140.796875 96.808594 C 141.125 97.03125 141.429688 97.28125 141.710938 97.558594 C 141.988281 97.839844 142.238281 98.144531 142.460938 98.472656 C 142.679688 98.804688 142.867188 99.152344 143.015625 99.515625 C 143.167969 99.882812 143.28125 100.261719 143.359375 100.648438 C 143.4375 101.035156 143.476562 101.429688 143.476562 101.824219 Z M 143.476562 101.824219 " fill-opacity="1" fill-rule="nonzero"/></g><path fill="#5a4fb6" d="M 338.3125 188.746094 L 338.3125 195.398438 L 363.511719 195.398438 C 362.914062 193.179688 362.914062 190.960938 363.511719 188.746094 Z M 338.3125 188.746094 " fill-opacity="1" fill-rule="nonzero"/><path fill="#5a4fb6" d="M 338.3125 143.625 L 338.3125 150.273438 L 363.511719 150.273438 C 362.914062 148.058594 362.914062 145.839844 363.511719 143.625 Z M 338.3125 143.625 " fill-opacity="1" fill-rule="nonzero"/><path fill="#5a4fb6" d="M 338.3125 98.5 L 338.3125 105.152344 L 363.511719 105.152344 C 362.914062 102.9375 362.914062 100.71875 363.511719 98.5 Z M 338.3125 98.5 " fill-opacity="1" fill-rule="nonzero"/><g clip-path="url(#31721c9dd4)"><path fill="#5a4fb6" d="M 381.769531 192.074219 C 381.769531 192.46875 381.734375 192.859375 381.65625 193.25 C 381.578125 193.636719 381.464844 194.015625 381.3125 194.382812 C 381.160156 194.746094 380.976562 195.09375 380.753906 195.425781 C 380.535156 195.753906 380.285156 196.058594 380.003906 196.339844 C 379.722656 196.617188 379.417969 196.867188 379.089844 197.089844 C 378.761719 197.308594 378.414062 197.492188 378.046875 197.644531 C 377.679688 197.796875 377.304688 197.910156 376.914062 197.988281 C 376.527344 198.066406 376.136719 198.105469 375.738281 198.105469 C 375.34375 198.105469 374.949219 198.066406 374.5625 197.988281 C 374.171875 197.910156 373.796875 197.796875 373.429688 197.644531 C 373.066406 197.492188 372.71875 197.308594 372.386719 197.089844 C 372.058594 196.867188 371.753906 196.617188 371.472656 196.339844 C 371.195312 196.058594 370.945312 195.753906 370.722656 195.425781 C 370.503906 195.09375 370.316406 194.746094 370.167969 194.382812 C 370.015625 194.015625 369.898438 193.636719 369.824219 193.25 C 369.746094 192.859375 369.707031 192.46875 369.707031 192.074219 C 369.707031 191.675781 369.746094 191.285156 369.824219 190.894531 C 369.898438 190.507812 370.015625 190.128906 370.167969 189.765625 C 370.316406 189.398438 370.503906 189.050781 370.722656 188.722656 C 370.945312 188.390625 371.195312 188.085938 371.472656 187.808594 C 371.753906 187.527344 372.058594 187.277344 372.386719 187.058594 C 372.71875 186.835938 373.066406 186.652344 373.429688 186.5 C 373.796875 186.347656 374.171875 186.234375 374.5625 186.15625 C 374.949219 186.078125 375.34375 186.039062 375.738281 186.039062 C 376.136719 186.039062 376.527344 186.078125 376.914062 186.15625 C 377.304688 186.234375 377.679688 186.347656 378.046875 186.5 C 378.414062 186.652344 378.761719 186.835938 379.089844 187.058594 C 379.417969 187.277344 379.722656 187.527344 380.003906 187.808594 C 380.285156 188.085938 380.535156 188.390625 380.753906 188.722656 C 380.976562 189.050781 381.160156 189.398438 381.3125 189.765625 C 381.464844 190.128906 381.578125 190.507812 381.65625 190.894531 C 381.734375 191.285156 381.769531 191.675781 381.769531 192.074219 Z M 381.769531 192.074219 " fill-opacity="1" fill-rule="nonzero"/></g><g clip-path="url(#00c96180c9)"><path fill="#5a4fb6" d="M 381.769531 146.949219 C 381.769531 147.34375 381.734375 147.738281 381.65625 148.125 C 381.578125 148.515625 381.464844 148.890625 381.3125 149.257812 C 381.160156 149.625 380.976562 149.972656 380.753906 150.300781 C 380.535156 150.628906 380.285156 150.933594 380.003906 151.214844 C 379.722656 151.496094 379.417969 151.746094 379.089844 151.964844 C 378.761719 152.183594 378.414062 152.371094 378.046875 152.523438 C 377.679688 152.671875 377.304688 152.789062 376.914062 152.867188 C 376.527344 152.941406 376.136719 152.980469 375.738281 152.980469 C 375.34375 152.980469 374.949219 152.941406 374.5625 152.863281 C 374.171875 152.789062 373.796875 152.671875 373.429688 152.523438 C 373.066406 152.371094 372.71875 152.183594 372.386719 151.964844 C 372.058594 151.746094 371.753906 151.496094 371.472656 151.214844 C 371.195312 150.933594 370.945312 150.628906 370.722656 150.300781 C 370.503906 149.972656 370.316406 149.625 370.167969 149.257812 C 370.015625 148.890625 369.898438 148.515625 369.824219 148.125 C 369.746094 147.738281 369.707031 147.34375 369.707031 146.949219 C 369.707031 146.554688 369.746094 146.160156 369.824219 145.773438 C 369.898438 145.382812 370.015625 145.007812 370.167969 144.640625 C 370.316406 144.273438 370.503906 143.925781 370.722656 143.597656 C 370.945312 143.269531 371.195312 142.964844 371.472656 142.683594 C 371.753906 142.402344 372.058594 142.152344 372.386719 141.933594 C 372.71875 141.714844 373.066406 141.527344 373.429688 141.375 C 373.796875 141.222656 374.171875 141.109375 374.5625 141.03125 C 374.949219 140.957031 375.34375 140.917969 375.738281 140.917969 C 376.136719 140.917969 376.527344 140.957031 376.914062 141.03125 C 377.304688 141.109375 377.679688 141.222656 378.046875 141.375 C 378.414062 141.527344 378.761719 141.714844 379.089844 141.933594 C 379.417969 142.152344 379.722656 142.402344 380.003906 142.683594 C 380.285156 142.964844 380.535156 143.269531 380.753906 143.597656 C 380.976562 143.925781 381.160156 144.273438 381.3125 144.640625 C 381.464844 145.007812 381.578125 145.382812 381.65625 145.773438 C 381.734375 146.160156 381.769531 146.554688 381.769531 146.949219 Z M 381.769531 146.949219 " fill-opacity="1" fill-rule="nonzero"/></g><g clip-path="url(#e857a7b0b7)"><path fill="#5a4fb6" d="M 381.769531 101.824219 C 381.769531 102.222656 381.734375 102.613281 381.65625 103.003906 C 381.578125 103.390625 381.464844 103.769531 381.3125 104.132812 C 381.160156 104.5 380.976562 104.847656 380.753906 105.175781 C 380.535156 105.507812 380.285156 105.8125 380.003906 106.089844 C 379.722656 106.371094 379.417969 106.621094 379.089844 106.839844 C 378.761719 107.0625 378.414062 107.246094 378.046875 107.398438 C 377.679688 107.550781 377.304688 107.664062 376.914062 107.742188 C 376.527344 107.820312 376.136719 107.859375 375.738281 107.859375 C 375.34375 107.859375 374.949219 107.820312 374.5625 107.742188 C 374.171875 107.664062 373.796875 107.550781 373.429688 107.398438 C 373.066406 107.246094 372.71875 107.0625 372.386719 106.839844 C 372.058594 106.621094 371.753906 106.371094 371.472656 106.089844 C 371.195312 105.8125 370.945312 105.507812 370.722656 105.175781 C 370.503906 104.847656 370.316406 104.5 370.167969 104.132812 C 370.015625 103.769531 369.898438 103.390625 369.824219 103.003906 C 369.746094 102.613281 369.707031 102.222656 369.707031 101.824219 C 369.707031 101.429688 369.746094 101.035156 369.824219 100.648438 C 369.898438 100.261719 370.015625 99.882812 370.167969 99.515625 C 370.316406 99.152344 370.503906 98.804688 370.722656 98.472656 C 370.945312 98.144531 371.195312 97.839844 371.472656 97.558594 C 371.753906 97.28125 372.058594 97.03125 372.386719 96.808594 C 372.71875 96.589844 373.066406 96.402344 373.429688 96.253906 C 373.796875 96.101562 374.171875 95.988281 374.5625 95.910156 C 374.949219 95.832031 375.34375 95.792969 375.738281 95.792969 C 376.136719 95.792969 376.527344 95.832031 376.914062 95.910156 C 377.304688 95.988281 377.679688 96.101562 378.046875 96.253906 C 378.414062 96.402344 378.761719 96.589844 379.089844 96.808594 C 379.417969 97.03125 379.722656 97.28125 380.003906 97.558594 C 380.285156 97.839844 380.535156 98.144531 380.753906 98.472656 C 380.976562 98.804688 381.160156 99.152344 381.3125 99.515625 C 381.464844 99.882812 381.578125 100.261719 381.65625 100.648438 C 381.734375 101.035156 381.769531 101.429688 381.769531 101.824219 Z M 381.769531 101.824219 " fill-opacity="1" fill-rule="nonzero"/></g></svg>