<svg xmlns="http://www.w3.org/2000/svg" xmlns:xlink="http://www.w3.org/1999/xlink" width="700" zoomAndPan="magnify" viewBox="0 0 525 299.999988" height="400" preserveAspectRatio="xMidYMid meet" version="1.0"><defs><clipPath id="289223c0af"><path d="M 46.214844 64 L 345 64 L 345 241 L 46.214844 241 Z M 46.214844 64 " clip-rule="nonzero"/></clipPath><clipPath id="bb8e1c5273"><path d="M 202 55.105469 L 478.964844 55.105469 L 478.964844 182 L 202 182 Z M 202 55.105469 " clip-rule="nonzero"/></clipPath></defs><g clip-path="url(#289223c0af)"><path fill="#5d43a8" d="M 46.214844 64.699219 L 160.609375 89.410156 C 165.863281 90.546875 171.351562 89.796875 176.109375 87.292969 C 211.269531 68.808594 254.109375 74.882812 266.664062 77.242188 C 267.53125 77.40625 267.558594 78.636719 266.691406 78.851562 L 223.792969 90.664062 C 223.542969 90.722656 223.339844 90.894531 223.234375 91.125 L 210.757812 117.984375 C 210.757812 117.984375 204.921875 135.835938 204.921875 135.835938 L 221.734375 142.710938 L 239.0625 132.773438 L 263.09375 114.058594 C 263.332031 113.867188 263.652344 113.828125 263.929688 113.941406 L 282.578125 121.558594 C 282.722656 121.625 282.847656 121.730469 282.933594 121.867188 L 304.335938 154.53125 C 304.414062 154.648438 304.507812 154.734375 304.636719 154.800781 L 321.886719 164.179688 C 321.886719 164.179688 321.933594 164.207031 321.953125 164.226562 L 341.875 177.859375 C 342.960938 178.601562 343.75 179.71875 344.078125 180.996094 C 344.117188 181.152344 344.15625 181.296875 344.175781 181.449219 C 344.609375 184.019531 347.371094 205.09375 320.308594 200.378906 C 316.746094 199.761719 313.5 202.628906 313.828125 206.222656 C 314.542969 214.175781 311.828125 224.785156 290.539062 220.691406 C 287.71875 220.152344 285.457031 222.945312 286.46875 225.628906 C 289.5 233.679688 290.058594 244.703125 262.734375 233.0625 C 260.425781 232.082031 258.335938 233.324219 257.863281 235.796875 C 257.316406 238.714844 254.070312 241.46875 242.933594 240.304688 C 239.128906 239.898438 235.433594 238.78125 232.003906 237.085938 C 217.398438 229.855469 172.785156 206.058594 140.71875 170.589844 C 137.425781 166.949219 133.015625 164.503906 128.171875 163.707031 L 46.214844 150.527344 Z M 46.214844 64.699219 " fill-opacity="1" fill-rule="nonzero"/></g><path fill="#eb1f79" d="M 428.597656 107.984375 L 427.277344 108.589844 L 427.539062 109.15625 L 427.019531 109.726562 L 428.195312 110.785156 L 429.550781 109.28125 L 475.9375 88.042969 L 474.636719 85.175781 L 474.617188 84.972656 L 474.550781 84.972656 C 474.550781 84.972656 462.8125 58.949219 462.8125 58.949219 L 445.925781 88.863281 L 428.609375 107.984375 Z M 473.847656 87.273438 L 432.246094 106.316406 L 447.621094 89.34375 L 473.566406 86.675781 L 473.835938 87.273438 Z M 462.652344 62.445312 L 472.882812 85.15625 L 448.410156 87.667969 Z M 462.652344 62.445312 " fill-opacity="1" fill-rule="nonzero"/><path fill="#eb1f79" d="M 427.058594 109.878906 L 402.449219 118.3125 L 401.054688 116.957031 L 402.140625 99.886719 L 403.027344 100.425781 L 418.046875 75.875 L 430.476562 89.488281 L 434.132812 56.765625 L 416.417969 75.5 L 400.734375 74.265625 L 359.742188 84.25 L 332.96875 97.574219 L 311.972656 95.035156 L 308.832031 93.792969 L 271.074219 78.851562 L 271.074219 76.972656 L 268.242188 77.734375 L 267.511719 77.445312 L 267.90625 77.828125 L 223.65625 89.699219 L 223.195312 89.480469 L 223.011719 89.875 L 221.308594 90.335938 L 221.289062 90.289062 L 220.597656 90.527344 L 219.75 90.757812 L 219.882812 90.777344 L 219.796875 90.808594 L 221.011719 94.292969 L 210.621094 117.15625 L 209.59375 115.261719 L 205.007812 136.289062 L 225.726562 144.921875 L 223.832031 141.4375 L 240.324219 132.1875 L 240.257812 132.101562 L 263.574219 114.894531 L 252.445312 105.25 L 269.167969 99.019531 L 265.402344 114.394531 L 281.566406 121.828125 L 279.910156 123.523438 L 282.425781 122.875 L 304.671875 155.707031 C 304.867188 155.984375 322.378906 165.363281 322.378906 165.363281 L 343.820312 179.496094 L 386.679688 169.539062 L 386.324219 168 L 385.535156 168.183594 L 385.667969 145.742188 L 416.179688 147.917969 L 402.140625 122.085938 L 451.125 151.066406 L 427.066406 109.878906 Z M 446.679688 146.597656 L 402.285156 120.335938 L 402.71875 119.890625 L 426.402344 111.890625 L 446.6875 146.609375 Z M 383.957031 167.5 L 359.117188 154.578125 L 384.089844 146 Z M 381.058594 100.898438 L 383.9375 142.71875 L 364.941406 122.460938 L 364.921875 122.230469 L 381.058594 100.886719 Z M 346.785156 141.882812 L 327.652344 152 L 327.132812 140.609375 Z M 336.136719 101.871094 L 363.042969 122.90625 L 348.730469 139.636719 Z M 382.117188 143.09375 L 350.039062 140.550781 L 364.210938 123.984375 Z M 329.878906 152.605469 L 348.710938 142.640625 L 355.679688 153.644531 Z M 355.746094 155.242188 L 344.078125 176.019531 L 328.5 154.136719 L 355.746094 155.234375 Z M 357.441406 153.472656 L 350.269531 142.152344 L 382.859375 144.742188 Z M 364.710938 119.902344 L 362.6875 98.335938 L 362.949219 98.808594 L 364.394531 98 L 379.988281 99.683594 L 364.710938 119.890625 Z M 361.03125 97.644531 L 363.21875 121.039062 L 336.550781 100.183594 L 361.023438 97.644531 Z M 345.359375 134.515625 L 330.425781 117.621094 L 333.390625 100.234375 Z M 346.628906 138.347656 L 347.292969 140.332031 L 327.046875 138.773438 L 327 137.664062 L 330.082031 119.621094 L 346.640625 138.347656 Z M 325.554688 136.738281 L 312.828125 114.210938 L 311.402344 98.5 L 328.734375 118.109375 L 325.554688 136.75 Z M 309.621094 96.488281 C 309.621094 96.488281 311.199219 113.855469 311.199219 113.855469 L 284.957031 120.585938 L 308.179688 96.726562 L 309.613281 96.488281 Z M 324.542969 138.175781 L 300.398438 130.886719 L 311.953125 115.878906 Z M 324.417969 139.792969 L 305.867188 152.875 L 300.207031 132.5625 L 299.976562 132.40625 L 324.417969 139.78125 Z M 325.566406 140.917969 L 326.085938 152.453125 L 325.332031 152.421875 L 325.429688 152.558594 L 307.78125 153.445312 L 325.554688 140.910156 Z M 327.144531 154.972656 L 342.742188 176.886719 L 323.734375 164.363281 L 327.132812 154.972656 Z M 357.421875 155.476562 L 382.964844 168.761719 L 345.003906 177.570312 L 357.414062 155.476562 Z M 382.675781 101.339844 L 399.601562 118.96875 L 385.398438 140.9375 Z M 383.667969 100.109375 L 400.554688 99.867188 L 399.5625 115.511719 Z M 432.042969 61.175781 L 429.292969 85.839844 L 419.007812 74.574219 L 432.046875 61.175781 Z M 401.613281 77.253906 L 415.445312 77.097656 L 402.21875 98.722656 L 402.246094 98.269531 L 382.847656 98.546875 L 382.933594 98.433594 L 366.789062 96.691406 L 401.613281 77.261719 Z M 400.824219 75.875 L 364.066406 96.382812 L 362.488281 96.207031 L 362.417969 95.515625 L 362.324219 95.515625 C 362.324219 95.515625 360.089844 85.792969 360.089844 85.792969 Z M 360.742188 95.71875 L 334.230469 98.375 L 358.597656 86.371094 L 360.742188 95.726562 Z M 329.078125 116.097656 L 311.855469 96.613281 L 331.832031 99.972656 Z M 307.636719 95.015625 L 307.40625 95.246094 L 290.859375 98.027344 L 274.230469 81.796875 L 307.628906 95.015625 Z M 269.214844 79.101562 L 269.496094 79.371094 L 269.496094 96.816406 L 227.402344 90.316406 Z M 222.417969 91.144531 L 221.945312 92.183594 L 221.539062 91.007812 Z M 229.359375 117.550781 L 230.726562 117.417969 L 230.347656 116.347656 L 248.613281 107.519531 L 238.089844 129.191406 Z M 250.125 104.402344 L 249.382812 104.679688 L 249.804688 105.046875 L 249.71875 105.21875 L 229.820312 114.835938 L 222.695312 94.339844 L 223.945312 91.578125 L 250.21875 104.179688 L 250.113281 104.402344 Z M 221.75 96.441406 L 228.394531 115.539062 L 227.992188 115.734375 L 227.289062 114.789062 L 227.046875 116.183594 L 212.144531 117.621094 L 221.761719 96.449219 Z M 206.820312 135.324219 L 210.21875 119.738281 L 222.183594 141.726562 L 206.828125 135.324219 Z M 211.75 119.246094 L 226.757812 117.804688 L 222.925781 139.773438 L 211.757812 119.246094 Z M 224.640625 139.148438 L 228.210938 118.667969 L 237.964844 131.675781 L 224.640625 139.15625 Z M 261.042969 114.78125 L 239.304688 130.820312 L 239.160156 130.617188 L 251.058594 106.125 L 261.050781 114.78125 Z M 252.28125 103.601562 L 252.359375 103.449219 L 228.742188 92.125 L 267.164062 98.066406 L 252.28125 103.613281 Z M 270.882812 98.632812 L 271.074219 98.664062 L 271.074219 97.835938 L 271.410156 96.476562 L 271.074219 96.601562 L 271.074219 80.921875 L 288.414062 97.855469 L 271.671875 96.054688 L 282.394531 120.460938 L 267.242188 113.488281 Z M 289.539062 99.558594 L 283.214844 118.378906 L 274.222656 97.914062 L 289.546875 99.558594 Z M 291.195312 99.578125 L 305.539062 97.160156 L 284.871094 118.398438 L 291.195312 99.570312 Z M 284.898438 122.230469 L 310.027344 115.789062 L 298.144531 131.214844 L 285.042969 122.578125 L 284.890625 122.242188 Z M 298.839844 133.554688 L 303.914062 151.769531 L 285.699219 124.890625 Z M 325.765625 154.136719 L 322.367188 163.523438 L 307.765625 155.042969 Z M 413.394531 146.125 L 385.667969 144.144531 L 385.667969 143.769531 C 385.667969 143.769531 385.59375 143.796875 385.59375 143.796875 L 385.574219 143.554688 L 400.003906 121.480469 L 413.398438 146.117188 Z M 401.960938 120.140625 L 402.046875 120.113281 L 402.257812 120.316406 Z M 401.960938 120.140625 " fill-opacity="1" fill-rule="nonzero"/><g clip-path="url(#bb8e1c5273)"><path fill="#c33190" d="M 462.640625 57.46875 C 464.683594 57.46875 466.347656 59.125 466.347656 61.175781 C 466.347656 63.226562 464.691406 64.878906 462.640625 64.878906 C 460.589844 64.878906 458.933594 63.226562 458.933594 61.175781 C 458.933594 59.125 460.589844 57.46875 462.640625 57.46875 Z M 429.386719 58.96875 C 429.386719 61.011719 431.042969 62.675781 433.09375 62.675781 C 435.144531 62.675781 436.800781 61.019531 436.800781 58.96875 C 436.800781 56.917969 435.136719 55.261719 433.085938 55.261719 C 431.035156 55.261719 429.378906 56.917969 429.378906 58.96875 Z M 442.980469 87.753906 C 442.980469 89.796875 444.636719 91.460938 446.6875 91.460938 C 448.738281 91.460938 450.394531 89.804688 450.394531 87.753906 C 450.394531 85.703125 448.738281 84.050781 446.6875 84.050781 C 444.636719 84.050781 442.980469 85.703125 442.980469 87.753906 Z M 426.277344 87.1875 C 426.277344 89.230469 427.933594 90.894531 429.984375 90.894531 C 432.035156 90.894531 433.691406 89.238281 433.691406 87.1875 C 433.691406 85.136719 432.035156 83.480469 429.984375 83.480469 C 427.933594 83.480469 426.277344 85.136719 426.277344 87.1875 Z M 414.503906 75.414062 C 414.503906 77.453125 416.160156 79.121094 418.210938 79.121094 C 420.261719 79.121094 421.917969 77.464844 421.917969 75.414062 C 421.917969 73.363281 420.261719 71.707031 418.210938 71.707031 C 416.160156 71.707031 414.503906 73.363281 414.503906 75.414062 Z M 423.621094 110.734375 C 423.621094 112.777344 425.277344 114.441406 427.328125 114.441406 C 429.378906 114.441406 431.035156 112.785156 431.035156 110.734375 C 431.035156 108.6875 429.378906 107.03125 427.328125 107.03125 C 425.277344 107.03125 423.621094 108.6875 423.621094 110.734375 Z M 398.550781 99.53125 C 398.550781 101.570312 400.207031 103.238281 402.257812 103.238281 C 404.308594 103.238281 405.964844 101.582031 405.964844 99.53125 C 405.964844 97.480469 404.308594 95.824219 402.257812 95.824219 C 400.207031 95.824219 398.550781 97.480469 398.550781 99.53125 Z M 397.222656 75.039062 C 397.222656 77.078125 398.878906 78.746094 400.929688 78.746094 C 402.980469 78.746094 404.636719 77.089844 404.636719 75.039062 C 404.636719 72.988281 402.980469 71.332031 400.929688 71.332031 C 398.878906 71.332031 397.222656 72.988281 397.222656 75.039062 Z M 397.222656 119.46875 C 397.222656 121.507812 398.878906 123.175781 400.929688 123.175781 C 402.980469 123.175781 404.636719 121.519531 404.636719 119.46875 C 404.636719 117.417969 402.980469 115.761719 400.929688 115.761719 C 398.878906 115.761719 397.222656 117.417969 397.222656 119.46875 Z M 378.042969 99.335938 C 378.042969 101.378906 379.699219 103.042969 381.75 103.042969 C 383.800781 103.042969 385.457031 101.386719 385.457031 99.335938 C 385.457031 97.285156 383.800781 95.628906 381.75 95.628906 C 379.699219 95.628906 378.042969 97.285156 378.042969 99.335938 Z M 360.484375 122.789062 C 360.484375 124.832031 362.140625 126.496094 364.191406 126.496094 C 366.242188 126.496094 367.898438 124.839844 367.898438 122.789062 C 367.898438 120.738281 366.242188 119.082031 364.191406 119.082031 C 362.140625 119.082031 360.484375 120.738281 360.484375 122.789062 Z M 358.867188 97.441406 C 358.867188 99.480469 360.523438 101.148438 362.574219 101.148438 C 364.625 101.148438 366.28125 99.492188 366.28125 97.441406 C 366.28125 95.390625 364.625 93.734375 362.574219 93.734375 C 360.523438 93.734375 358.867188 95.390625 358.867188 97.441406 Z M 380.324219 168.269531 C 380.324219 170.3125 381.980469 171.976562 384.03125 171.976562 C 386.082031 171.976562 387.738281 170.320312 387.738281 168.269531 C 387.738281 166.21875 386.082031 164.5625 384.03125 164.5625 C 381.980469 164.5625 380.324219 166.21875 380.324219 168.269531 Z M 411.085938 147.023438 C 411.085938 149.0625 412.742188 150.730469 414.792969 150.730469 C 416.84375 150.730469 418.5 149.074219 418.5 147.023438 C 418.5 144.972656 416.84375 143.316406 414.792969 143.316406 C 412.742188 143.316406 411.085938 144.972656 411.085938 147.023438 Z M 340.449219 177.492188 C 340.449219 179.535156 342.105469 181.199219 344.15625 181.199219 C 346.207031 181.199219 347.863281 179.542969 347.863281 177.492188 C 347.863281 175.441406 346.207031 173.785156 344.15625 173.785156 C 342.105469 173.785156 340.449219 175.441406 340.449219 177.492188 Z M 234.488281 131.050781 C 234.488281 133.089844 236.144531 134.757812 238.195312 134.757812 C 240.246094 134.757812 241.902344 133.101562 241.902344 131.050781 C 241.902344 129 240.246094 127.34375 238.195312 127.34375 C 236.144531 127.34375 234.488281 129 234.488281 131.050781 Z M 247.023438 104.863281 C 247.023438 106.90625 248.679688 108.570312 250.730469 108.570312 C 252.78125 108.570312 254.4375 106.914062 254.4375 104.863281 C 254.4375 102.8125 252.78125 101.15625 250.730469 101.15625 C 248.679688 101.15625 247.023438 102.8125 247.023438 104.863281 Z M 202.207031 135.796875 C 202.207031 137.835938 203.863281 139.503906 205.914062 139.503906 C 207.964844 139.503906 209.621094 137.847656 209.621094 135.796875 C 209.621094 133.746094 207.964844 132.089844 205.914062 132.089844 C 203.863281 132.089844 202.207031 133.746094 202.207031 135.796875 Z M 219.296875 142.257812 C 219.296875 144.296875 220.953125 145.964844 223.003906 145.964844 C 225.054688 145.964844 226.710938 144.308594 226.710938 142.257812 C 226.710938 140.207031 225.054688 138.550781 223.003906 138.550781 C 220.953125 138.550781 219.296875 140.207031 219.296875 142.257812 Z M 322.78125 153.464844 C 322.78125 155.503906 324.4375 157.167969 326.488281 157.167969 C 328.539062 157.167969 330.195312 155.515625 330.195312 153.464844 C 330.195312 151.414062 328.539062 149.757812 326.488281 149.757812 C 324.4375 149.757812 322.78125 151.414062 322.78125 153.464844 Z M 353.476562 154.097656 C 353.476562 156.140625 355.132812 157.804688 357.179688 157.804688 C 359.230469 157.804688 360.886719 156.148438 360.886719 154.097656 C 360.886719 152.046875 359.230469 150.390625 357.179688 150.390625 C 355.132812 150.390625 353.476562 152.046875 353.476562 154.097656 Z M 345.359375 140.996094 C 345.359375 143.035156 347.015625 144.703125 349.066406 144.703125 C 351.117188 144.703125 352.773438 143.046875 352.773438 140.996094 C 352.773438 138.945312 351.117188 137.289062 349.066406 137.289062 C 347.015625 137.289062 345.359375 138.945312 345.359375 140.996094 Z M 330.117188 98.132812 C 330.117188 100.175781 331.773438 101.839844 333.824219 101.839844 C 335.875 101.839844 337.53125 100.183594 337.53125 98.132812 C 337.53125 96.082031 335.875 94.425781 333.824219 94.425781 C 331.773438 94.425781 330.117188 96.082031 330.117188 98.132812 Z M 306.90625 114.789062 C 306.90625 116.832031 308.5625 118.496094 310.613281 118.496094 C 312.664062 118.496094 314.320312 116.839844 314.320312 114.789062 C 314.320312 112.738281 312.664062 111.082031 310.613281 111.082031 C 308.5625 111.082031 306.90625 112.738281 306.90625 114.789062 Z M 301.351562 154.386719 C 301.351562 156.429688 303.007812 158.09375 305.058594 158.09375 C 307.097656 158.09375 308.765625 156.4375 308.765625 154.386719 C 308.765625 152.335938 307.109375 150.679688 305.058594 150.679688 C 303.015625 150.679688 301.351562 152.335938 301.351562 154.386719 Z M 322.292969 138.578125 C 322.292969 140.621094 323.949219 142.285156 326 142.285156 C 328.050781 142.285156 329.703125 140.628906 329.703125 138.578125 C 329.703125 136.527344 328.050781 134.871094 326 134.871094 C 323.949219 134.871094 322.292969 136.527344 322.292969 138.578125 Z M 295.375 131.308594 C 295.375 133.351562 297.027344 135.015625 299.078125 135.015625 C 301.128906 135.015625 302.785156 133.359375 302.785156 131.308594 C 302.785156 129.257812 301.128906 127.605469 299.078125 127.605469 C 297.027344 127.605469 295.375 129.257812 295.375 131.308594 Z M 267.597656 97.277344 C 267.597656 99.316406 269.253906 100.984375 271.304688 100.984375 C 273.355469 100.984375 275.011719 99.328125 275.011719 97.277344 C 275.011719 95.226562 273.355469 93.570312 271.304688 93.570312 C 269.253906 93.570312 267.597656 95.226562 267.597656 97.277344 Z M 319.007812 164.207031 C 319.007812 166.25 320.664062 167.914062 322.714844 167.914062 C 324.765625 167.914062 326.421875 166.257812 326.421875 164.207031 C 326.421875 162.15625 324.765625 160.5 322.714844 160.5 C 320.664062 160.5 319.007812 162.15625 319.007812 164.207031 Z M 380.25 144.132812 C 380.25 146.175781 381.90625 147.839844 383.957031 147.839844 C 386.007812 147.839844 387.664062 146.183594 387.664062 144.132812 C 387.664062 142.082031 386.007812 140.425781 383.957031 140.425781 C 381.90625 140.425781 380.25 142.082031 380.25 144.132812 Z M 306.550781 95.46875 C 306.550781 97.507812 308.207031 99.171875 310.257812 99.171875 C 312.308594 99.171875 313.964844 97.519531 313.964844 95.46875 C 313.964844 93.417969 312.308594 91.761719 310.257812 91.761719 C 308.207031 91.761719 306.550781 93.417969 306.550781 95.46875 Z M 267.175781 79.621094 C 267.175781 81.660156 268.832031 83.328125 270.882812 83.328125 C 272.929688 83.328125 274.585938 81.671875 274.585938 79.621094 C 274.585938 77.570312 272.929688 75.914062 270.882812 75.914062 C 268.832031 75.914062 267.175781 77.570312 267.175781 79.621094 Z M 279.566406 122.058594 C 279.566406 124.097656 281.222656 125.765625 283.273438 125.765625 C 285.320312 125.765625 286.976562 124.109375 286.976562 122.058594 C 286.976562 120.007812 285.320312 118.351562 283.273438 118.351562 C 281.222656 118.351562 279.566406 120.007812 279.566406 122.058594 Z M 224.160156 116.503906 C 224.160156 118.542969 225.816406 120.210938 227.867188 120.210938 C 229.917969 120.210938 231.570312 118.554688 231.570312 116.503906 C 231.570312 114.460938 229.917969 112.796875 227.867188 112.796875 C 225.816406 112.796875 224.160156 114.453125 224.160156 116.503906 Z M 218.535156 91.761719 C 218.535156 93.800781 220.191406 95.46875 222.242188 95.46875 C 224.292969 95.46875 225.949219 93.8125 225.949219 91.761719 C 225.949219 89.710938 224.292969 88.054688 222.242188 88.054688 C 220.191406 88.054688 218.535156 89.710938 218.535156 91.761719 Z M 258.914062 113.941406 C 258.914062 115.984375 260.570312 117.648438 262.621094 117.648438 C 264.671875 117.648438 266.328125 115.992188 266.328125 113.941406 C 266.328125 111.890625 264.671875 110.234375 262.621094 110.234375 C 260.570312 110.234375 258.914062 111.890625 258.914062 113.941406 Z M 286.902344 98.886719 C 286.902344 100.925781 288.558594 102.589844 290.609375 102.589844 C 292.660156 102.589844 294.3125 100.933594 294.3125 98.886719 C 294.3125 96.835938 292.660156 95.179688 290.609375 95.179688 C 288.558594 95.179688 286.902344 96.835938 286.902344 98.886719 Z M 207.148438 118.535156 C 207.148438 120.574219 208.804688 122.242188 210.855469 122.242188 C 212.90625 122.242188 214.558594 120.585938 214.558594 118.535156 C 214.558594 116.484375 212.90625 114.828125 210.855469 114.828125 C 208.804688 114.828125 207.148438 116.484375 207.148438 118.535156 Z M 471.402344 86.457031 C 471.402344 88.496094 473.058594 90.164062 475.109375 90.164062 C 477.160156 90.164062 478.816406 88.507812 478.816406 86.457031 C 478.816406 84.40625 477.160156 82.75 475.109375 82.75 C 473.058594 82.75 471.402344 84.40625 471.402344 86.457031 Z M 445.195312 148.832031 C 445.195312 150.875 446.851562 152.539062 448.902344 152.539062 C 450.953125 152.539062 452.609375 150.882812 452.609375 148.832031 C 452.609375 146.78125 450.953125 145.125 448.902344 145.125 C 446.851562 145.125 445.195312 146.78125 445.195312 148.832031 Z M 355.257812 84.636719 C 355.257812 86.675781 356.910156 88.34375 358.960938 88.34375 C 361.011719 88.34375 362.667969 86.6875 362.667969 84.636719 C 362.667969 82.585938 361.011719 80.929688 358.960938 80.929688 C 356.910156 80.929688 355.257812 82.585938 355.257812 84.636719 Z M 326.199219 117.496094 C 326.199219 119.535156 327.855469 121.203125 329.90625 121.203125 C 331.957031 121.203125 333.613281 119.546875 333.613281 117.496094 C 333.613281 115.445312 331.957031 113.789062 329.90625 113.789062 C 327.855469 113.789062 326.199219 115.445312 326.199219 117.496094 Z M 326.199219 117.496094 " fill-opacity="1" fill-rule="nonzero"/></g></svg>